<svg width="20" height="20" viewBox="0 0 20 20" fill="none" xmlns="http://www.w3.org/2000/svg">
<path fill-rule="evenodd" clip-rule="evenodd" d="M15.8333 9.16658H10.8333V4.16659C10.8333 3.70575 10.46 3.33325 9.99999 3.33325C9.53999 3.33325 9.16666 3.70575 9.16666 4.16659V9.16658H4.16666C3.70666 9.16658 3.33333 9.53908 3.33333 9.99992C3.33333 10.4608 3.70666 10.8333 4.16666 10.8333H9.16666V15.8333C9.16666 16.2941 9.53999 16.6666 9.99999 16.6666C10.46 16.6666 10.8333 16.2941 10.8333 15.8333V10.8333H15.8333C16.2933 10.8333 16.6667 10.4608 16.6667 9.99992C16.6667 9.53908 16.2933 9.16658 15.8333 9.16658Z" fill="#1553A0"/>
<mask id="mask0" style="mask-type:alpha" maskUnits="userSpaceOnUse" x="3" y="3" width="14" height="14">
<path fill-rule="evenodd" clip-rule="evenodd" d="M15.8333 9.16658H10.8333V4.16659C10.8333 3.70575 10.46 3.33325 9.99999 3.33325C9.53999 3.33325 9.16666 3.70575 9.16666 4.16659V9.16658H4.16666C3.70666 9.16658 3.33333 9.53908 3.33333 9.99992C3.33333 10.4608 3.70666 10.8333 4.16666 10.8333H9.16666V15.8333C9.16666 16.2941 9.53999 16.6666 9.99999 16.6666C10.46 16.6666 10.8333 16.2941 10.8333 15.8333V10.8333H15.8333C16.2933 10.8333 16.6667 10.4608 16.6667 9.99992C16.6667 9.53908 16.2933 9.16658 15.8333 9.16658Z" fill="white"/>
</mask>
<g mask="url(#mask0)">
<rect width="20" height="20" fill="#1553A0"/>
</g>
</svg>
