<svg width="48" height="48" viewBox="0 0 48 48" fill="none" xmlns="http://www.w3.org/2000/svg">
<g opacity="0.6">
<path fill-rule="evenodd" clip-rule="evenodd" d="M19.999 37.9999C19.547 37.9999 19.093 37.8479 18.719 37.5359C17.871 36.8299 17.757 35.5679 18.463 34.7199L27.415 23.9779L18.785 13.2539C18.093 12.3939 18.229 11.1339 19.089 10.4419C19.951 9.7499 21.209 9.8859 21.903 10.7459L31.559 22.7459C32.155 23.4879 32.147 24.5479 31.537 25.2799L21.537 37.2799C21.141 37.7539 20.573 37.9999 19.999 37.9999Z" fill="#F9F9F9"/>
<mask id="mask0" style="mask-type:alpha" maskUnits="userSpaceOnUse" x="18" y="10" width="15" height="28">
<path fill-rule="evenodd" clip-rule="evenodd" d="M19.999 37.9999C19.547 37.9999 19.093 37.8479 18.719 37.5359C17.871 36.8299 17.757 35.5679 18.463 34.7199L27.415 23.9779L18.785 13.2539C18.093 12.3939 18.229 11.1339 19.089 10.4419C19.951 9.7499 21.209 9.8859 21.903 10.7459L31.559 22.7459C32.155 23.4879 32.147 24.5479 31.537 25.2799L21.537 37.2799C21.141 37.7539 20.573 37.9999 19.999 37.9999Z" fill="white"/>
</mask>
<g mask="url(#mask0)">
<rect width="48" height="48" fill="#F9F9F9"/>
</g>
</g>
</svg>
