<svg width="48" height="48" viewBox="0 0 48 48" fill="none" xmlns="http://www.w3.org/2000/svg">
<g opacity="0.6">
<path fill-rule="evenodd" clip-rule="evenodd" d="M28.001 37.9999C28.453 37.9999 28.907 37.8479 29.281 37.5359C30.129 36.8299 30.243 35.5679 29.537 34.7199L20.585 23.9779L29.215 13.2539C29.907 12.3939 29.771 11.1339 28.911 10.4419C28.049 9.7499 26.791 9.8859 26.097 10.7459L16.441 22.7459C15.845 23.4879 15.853 24.5479 16.463 25.2799L26.463 37.2799C26.859 37.7539 27.427 37.9999 28.001 37.9999Z" fill="#F9F9F9"/>
<mask id="mask0" style="mask-type:alpha" maskUnits="userSpaceOnUse" x="15" y="10" width="15" height="28">
<path fill-rule="evenodd" clip-rule="evenodd" d="M28.001 37.9999C28.453 37.9999 28.907 37.8479 29.281 37.5359C30.129 36.8299 30.243 35.5679 29.537 34.7199L20.585 23.9779L29.215 13.2539C29.907 12.3939 29.771 11.1339 28.911 10.4419C28.049 9.7499 26.791 9.8859 26.097 10.7459L16.441 22.7459C15.845 23.4879 15.853 24.5479 16.463 25.2799L26.463 37.2799C26.859 37.7539 27.427 37.9999 28.001 37.9999Z" fill="white"/>
</mask>
<g mask="url(#mask0)">
<rect width="48" height="48" transform="matrix(-1 0 0 1 48 0)" fill="#F9F9F9"/>
</g>
</g>
</svg>
