<svg width="418" height="30" viewBox="0 0 418 30" fill="none" xmlns="http://www.w3.org/2000/svg">
<path d="M37.4293 24H45.1974C49.2812 24 51.4563 21.8693 51.4563 18.9751C51.4563 16.2852 49.5298 14.6605 47.4613 14.5629V14.3853C49.3523 13.9592 50.7461 12.6186 50.7461 10.479C50.7461 7.75355 48.7219 5.81818 44.7091 5.81818H37.4293V24ZM41.2734 20.8572V16.0277H44.4961C46.3427 16.0277 47.4879 17.093 47.4879 18.5934C47.4879 19.9606 46.5557 20.8572 44.4073 20.8572H41.2734ZM41.2734 13.4265V8.92543H44.1942C45.8988 8.92543 46.8665 9.80433 46.8665 11.1183C46.8665 12.5565 45.6946 13.4265 44.1232 13.4265H41.2734ZM57.7751 24.2575C59.7904 24.2575 61.0954 23.3786 61.7613 22.109H61.8678V24H65.4544V14.8026C65.4544 11.5533 62.7023 10.1861 59.6661 10.1861C56.399 10.1861 54.2506 11.7486 53.7268 14.2344L57.2247 14.5185C57.4821 13.6129 58.29 12.9471 59.6483 12.9471C60.9356 12.9471 61.6725 13.5952 61.6725 14.7138V14.767C61.6725 15.646 60.7403 15.7614 58.3699 15.9922C55.6711 16.2408 53.2474 17.1463 53.2474 20.1914C53.2474 22.8903 55.1739 24.2575 57.7751 24.2575ZM58.8582 21.6474C57.6952 21.6474 56.8607 21.1058 56.8607 20.0671C56.8607 19.0018 57.7396 18.478 59.0713 18.2915C59.8969 18.1761 61.2463 17.9808 61.6991 17.679V19.1261C61.6991 20.5554 60.5184 21.6474 58.8582 21.6474ZM71.0786 24H75.0736L77.4173 15.424H77.586L79.9298 24H83.9337L87.6357 10.3636H83.8183L81.7408 19.4723H81.6254L79.3882 10.3636H75.6329L73.4312 19.5256H73.3069L71.194 10.3636H67.3676L71.0786 24ZM93.5417 24.2575C95.557 24.2575 96.862 23.3786 97.5279 22.109H97.6344V24H101.221V14.8026C101.221 11.5533 98.4689 10.1861 95.4327 10.1861C92.1656 10.1861 90.0172 11.7486 89.4934 14.2344L92.9913 14.5185C93.2487 13.6129 94.0566 12.9471 95.4149 12.9471C96.7022 12.9471 97.4391 13.5952 97.4391 14.7138V14.767C97.4391 15.646 96.5069 15.7614 94.1365 15.9922C91.4377 16.2408 89.014 17.1463 89.014 20.1914C89.014 22.8903 90.9405 24.2575 93.5417 24.2575ZM94.6248 21.6474C93.4618 21.6474 92.6273 21.1058 92.6273 20.0671C92.6273 19.0018 93.5062 18.478 94.8379 18.2915C95.6635 18.1761 97.0129 17.9808 97.4657 17.679V19.1261C97.4657 20.5554 96.285 21.6474 94.6248 21.6474ZM104.226 24H107.955V21.8161H108.124C108.647 22.9524 109.793 24.2219 111.994 24.2219C115.102 24.2219 117.525 21.7628 117.525 17.1996C117.525 12.5121 114.995 10.1861 112.003 10.1861C109.722 10.1861 108.63 11.5444 108.124 12.6541H108.008V5.81818H104.226V24ZM107.928 17.1818C107.928 14.7493 108.958 13.1957 110.796 13.1957C112.669 13.1957 113.663 14.8203 113.663 17.1818C113.663 19.5611 112.651 21.2124 110.796 21.2124C108.976 21.2124 107.928 19.6143 107.928 17.1818ZM127.302 10.3636H124.736V7.09659H120.954V10.3636H119.09V13.2045H120.954V20.3068C120.937 22.979 122.756 24.3018 125.5 24.1864C126.476 24.1509 127.169 23.9556 127.55 23.8313L126.956 21.017C126.769 21.0526 126.37 21.1413 126.015 21.1413C125.26 21.1413 124.736 20.8572 124.736 19.8097V13.2045H127.302V10.3636ZM129.766 24H133.547V10.3636H129.766V24ZM131.665 8.60582C132.793 8.60582 133.716 7.74467 133.716 6.68821C133.716 5.64062 132.793 4.77947 131.665 4.77947C130.547 4.77947 129.623 5.64062 129.623 6.68821C129.623 7.74467 130.547 8.60582 131.665 8.60582ZM144.387 24L146.056 19.1882H153.159L154.819 24H157.731L151.188 5.81818H148.018L141.475 24H144.387ZM146.855 16.88L149.536 9.12074H149.679L152.36 16.88H146.855ZM165.668 24.2752C168.89 24.2752 170.976 22.3398 171.269 19.6854H168.686C168.349 21.1591 167.203 22.0291 165.685 22.0291C163.439 22.0291 161.992 20.1559 161.992 17.1818C161.992 14.261 163.466 12.4233 165.685 12.4233C167.372 12.4233 168.402 13.4886 168.686 14.767H171.269C170.985 12.0149 168.739 10.1861 165.641 10.1861C161.797 10.1861 159.311 13.0803 159.311 17.244C159.311 21.3544 161.708 24.2752 165.668 24.2752ZM179.852 24.2752C183.075 24.2752 185.161 22.3398 185.454 19.6854H182.871C182.533 21.1591 181.388 22.0291 179.87 22.0291C177.624 22.0291 176.177 20.1559 176.177 17.1818C176.177 14.261 177.65 12.4233 179.87 12.4233C181.557 12.4233 182.586 13.4886 182.871 14.767H185.454C185.17 12.0149 182.924 10.1861 179.825 10.1861C175.981 10.1861 173.496 13.0803 173.496 17.244C173.496 21.3544 175.893 24.2752 179.852 24.2752ZM194.17 24.2752C197.144 24.2752 199.248 22.8104 199.852 20.5909L197.339 20.1381C196.86 21.4254 195.706 22.0824 194.196 22.0824C191.924 22.0824 190.397 20.6087 190.326 17.9808H200.02V17.0398C200.02 12.1126 197.073 10.1861 193.983 10.1861C190.184 10.1861 187.68 13.0803 187.68 17.2706C187.68 21.5053 190.148 24.2752 194.17 24.2752ZM190.335 15.9922C190.441 14.0568 191.844 12.3789 194.001 12.3789C196.061 12.3789 197.41 13.9059 197.419 15.9922H190.335ZM213.184 13.6928C212.634 11.571 210.973 10.1861 208.026 10.1861C204.945 10.1861 202.761 11.8107 202.761 14.2255C202.761 16.1609 203.933 17.4482 206.49 18.0163L208.798 18.5224C210.112 18.8153 210.725 19.4013 210.725 20.2536C210.725 21.31 209.597 22.1357 207.857 22.1357C206.268 22.1357 205.247 21.4521 204.928 20.1115L202.362 20.5021C202.806 22.9169 204.812 24.2752 207.875 24.2752C211.169 24.2752 213.45 22.5263 213.45 20.0582C213.45 18.1317 212.225 16.9421 209.722 16.3651L207.555 15.8679C206.055 15.5128 205.407 15.0067 205.416 14.0835C205.407 13.0359 206.543 12.2901 208.053 12.2901C209.704 12.2901 210.467 13.2045 210.778 14.119L213.184 13.6928ZM226.587 13.6928C226.037 11.571 224.377 10.1861 221.429 10.1861C218.349 10.1861 216.165 11.8107 216.165 14.2255C216.165 16.1609 217.337 17.4482 219.893 18.0163L222.202 18.5224C223.516 18.8153 224.128 19.4013 224.128 20.2536C224.128 21.31 223.001 22.1357 221.261 22.1357C219.671 22.1357 218.65 21.4521 218.331 20.1115L215.765 20.5021C216.209 22.9169 218.215 24.2752 221.278 24.2752C224.572 24.2752 226.854 22.5263 226.854 20.0582C226.854 18.1317 225.628 16.9421 223.125 16.3651L220.959 15.8679C219.458 15.5128 218.81 15.0067 218.819 14.0835C218.81 13.0359 219.947 12.2901 221.456 12.2901C223.107 12.2901 223.871 13.2045 224.181 14.119L226.587 13.6928ZM251.703 11.7308C251.081 7.84233 248.036 5.5696 244.192 5.5696C239.487 5.5696 236.016 9.0941 236.016 14.9091C236.016 20.7241 239.469 24.2486 244.192 24.2486C248.187 24.2486 251.108 21.745 251.703 18.1495L248.933 18.1406C248.462 20.4666 246.509 21.745 244.21 21.745C241.094 21.745 238.741 19.3569 238.741 14.9091C238.741 10.4968 241.085 8.07315 244.219 8.07315C246.536 8.07315 248.48 9.3782 248.933 11.7308H251.703ZM260.516 24.2752C264.36 24.2752 266.873 21.4609 266.873 17.244C266.873 13.0004 264.36 10.1861 260.516 10.1861C256.672 10.1861 254.16 13.0004 254.16 17.244C254.16 21.4609 256.672 24.2752 260.516 24.2752ZM260.525 22.0469C258.013 22.0469 256.841 19.854 256.841 17.2351C256.841 14.625 258.013 12.4055 260.525 12.4055C263.02 12.4055 264.192 14.625 264.192 17.2351C264.192 19.854 263.02 22.0469 260.525 22.0469ZM272.49 15.9034C272.49 13.7283 273.822 12.4854 275.668 12.4854C277.471 12.4854 278.563 13.6662 278.563 15.646V24H281.217V15.3263C281.217 11.9528 279.362 10.1861 276.574 10.1861C274.523 10.1861 273.183 11.136 272.552 12.5831H272.384V10.3636H269.836V24H272.49V15.9034ZM291.142 10.3636H288.346V7.09659H285.691V10.3636H283.694V12.4943H285.691V20.5465C285.683 23.0234 287.574 24.2219 289.669 24.1776C290.512 24.1687 291.08 24.0089 291.391 23.8935L290.912 21.7006C290.734 21.7362 290.406 21.8161 289.979 21.8161C289.118 21.8161 288.346 21.532 288.346 19.9961V12.4943H291.142V10.3636ZM294.079 24H296.733V15.6726C296.733 13.8881 298.109 12.6009 299.991 12.6009C300.542 12.6009 301.163 12.6985 301.376 12.7607V10.2216C301.11 10.1861 300.586 10.1594 300.249 10.1594C298.651 10.1594 297.284 11.065 296.787 12.5298H296.645V10.3636H294.079V24ZM308.929 24.2752C312.773 24.2752 315.286 21.4609 315.286 17.244C315.286 13.0004 312.773 10.1861 308.929 10.1861C305.085 10.1861 302.573 13.0004 302.573 17.244C302.573 21.4609 305.085 24.2752 308.929 24.2752ZM308.938 22.0469C306.426 22.0469 305.254 19.854 305.254 17.2351C305.254 14.625 306.426 12.4055 308.938 12.4055C311.433 12.4055 312.605 14.625 312.605 17.2351C312.605 19.854 311.433 22.0469 308.938 22.0469ZM320.903 5.81818H318.249V24H320.903V5.81818ZM341.22 10.5945H343.866C343.786 7.68253 341.211 5.5696 337.518 5.5696C333.869 5.5696 331.073 7.65589 331.073 10.7898C331.073 13.32 332.884 14.8026 335.805 15.5927L337.953 16.1786C339.897 16.6935 341.398 17.3327 341.398 18.9485C341.398 20.7241 339.702 21.896 337.367 21.896C335.254 21.896 333.496 20.9549 333.337 18.9751H330.585C330.762 22.2688 333.31 24.3018 337.385 24.3018C341.655 24.3018 344.114 22.0558 344.114 18.9751C344.114 15.6992 341.194 14.4297 338.885 13.8615L337.11 13.3999C335.689 13.0359 333.798 12.37 333.807 10.63C333.807 9.08523 335.219 7.93999 337.456 7.93999C339.542 7.93999 341.025 8.91655 341.22 10.5945ZM348.857 29.1136C351.05 29.1136 352.435 27.9684 353.225 25.82L358.863 10.3903L355.995 10.3636L352.542 20.946H352.4L348.946 10.3636H346.105L351.095 24.1776L350.766 25.0831C350.091 26.8942 349.141 27.0451 347.685 26.6456L347.046 28.8207C347.366 28.9627 348.058 29.1136 348.857 29.1136ZM371.582 13.6928C371.032 11.571 369.372 10.1861 366.424 10.1861C363.344 10.1861 361.16 11.8107 361.16 14.2255C361.16 16.1609 362.332 17.4482 364.888 18.0163L367.197 18.5224C368.511 18.8153 369.123 19.4013 369.123 20.2536C369.123 21.31 367.996 22.1357 366.256 22.1357C364.667 22.1357 363.646 21.4521 363.326 20.1115L360.76 20.5021C361.204 22.9169 363.211 24.2752 366.273 24.2752C369.567 24.2752 371.849 22.5263 371.849 20.0582C371.849 18.1317 370.624 16.9421 368.12 16.3651L365.954 15.8679C364.453 15.5128 363.805 15.0067 363.814 14.0835C363.805 13.0359 364.942 12.2901 366.451 12.2901C368.102 12.2901 368.866 13.2045 369.176 14.119L371.582 13.6928ZM381.133 10.3636H378.336V7.09659H375.682V10.3636H373.684V12.4943H375.682V20.5465C375.673 23.0234 377.564 24.2219 379.659 24.1776C380.502 24.1687 381.071 24.0089 381.381 23.8935L380.902 21.7006C380.724 21.7362 380.396 21.8161 379.97 21.8161C379.109 21.8161 378.336 21.532 378.336 19.9961V12.4943H381.133V10.3636ZM389.8 24.2752C392.774 24.2752 394.878 22.8104 395.482 20.5909L392.969 20.1381C392.49 21.4254 391.336 22.0824 389.826 22.0824C387.554 22.0824 386.027 20.6087 385.956 17.9808H395.65V17.0398C395.65 12.1126 392.703 10.1861 389.613 10.1861C385.814 10.1861 383.31 13.0803 383.31 17.2706C383.31 21.5053 385.778 24.2752 389.8 24.2752ZM385.964 15.9922C386.071 14.0568 387.474 12.3789 389.631 12.3789C391.691 12.3789 393.04 13.9059 393.049 15.9922H385.964ZM398.595 24H401.25V15.5927C401.25 13.755 402.537 12.4766 404.046 12.4766C405.52 12.4766 406.541 13.4531 406.541 14.9357V24H409.187V15.3086C409.187 13.6662 410.19 12.4766 411.921 12.4766C413.324 12.4766 414.478 13.2578 414.478 15.1044V24H417.132V14.8558C417.132 11.7397 415.392 10.1861 412.924 10.1861C410.962 10.1861 409.489 11.1271 408.832 12.5831H408.69C408.095 11.0916 406.843 10.1861 405.023 10.1861C403.221 10.1861 401.88 11.0827 401.312 12.5831H401.143V10.3636H398.595V24Z" fill="#1553A0"/>
<path d="M16.361 5.17737C16.361 7.38162 14.7538 9.17489 12.7783 9.17489C11.7945 9.17489 10.9023 8.72997 10.2542 8.01128L9.01544 12.8489H16.5411L15.4279 8.50159L19.6899 9.51032L20.672 4.29722L15.8697 3.16064C16.1814 3.75319 16.361 4.44213 16.361 5.17737V5.17737Z" fill="#1553A0"/>
<path d="M6.39575 6.36401L9.65669 7.13581C9.36363 6.55658 9.19552 5.88866 9.19552 5.17745C9.19552 3.84343 9.78478 2.66078 10.6875 1.93427L7.38635 1.15295L6.39575 6.36401Z" fill="#1553A0"/>
<path d="M24.0953 3.33337L22.1963 4.48344L20.2571 14.7764C23.38 14.7764 25.2884 12.8261 25.8735 9.74856C26.2706 7.65987 25.7865 4.91516 24.0953 3.33337V3.33337Z" fill="#76DDFB"/>
<path d="M7.60775 18.3459L6.70563 21.869C8.78149 21.9046 10.9617 22.273 12.8971 22.6006C13.4965 22.702 16.0664 23.3729 19.2359 23.3729L17.9486 18.3459H7.60775Z" fill="#1859A9"/>
<path d="M8.58004 14.5491L8.04309 16.6459H17.5133L16.9764 14.5491H8.58004Z" fill="#1859A9"/>
<path d="M13.2497 7.40794C14.3561 7.11611 15.0411 5.87872 14.7795 4.64415C14.518 3.40958 13.409 2.64534 12.3025 2.93717C11.1961 3.229 10.5112 4.46639 10.7727 5.70096C11.0343 6.93553 12.1432 7.69977 13.2497 7.40794Z" fill="#1859A9"/>
<path d="M4.89416 21.9358V6.00858L5.89583 0.800128L2.51523 0L1.52454 5.21106L3.37048 5.64793V22.203C3.84145 22.0803 4.34645 21.9913 4.89416 21.9358V21.9358Z" fill="#1553A0"/>
<path d="M24.7708 26.3243C24.008 25.5592 22.9556 25.1548 21.7276 25.1548C19.5382 25.1548 17.0584 24.9533 14.357 24.556C13.8486 24.4812 13.2752 24.3841 12.6681 24.2814C10.715 23.9507 8.43932 23.5656 6.38311 23.5656C5.39333 23.5656 4.45459 23.6548 3.62677 23.8823C1.4575 24.4786 0 26.2709 0 29H26.0042C25.8491 27.9001 25.431 26.9864 24.7708 26.3243V26.3243Z" fill="#1859A9"/>
</svg>
