<svg width="32" height="32" viewBox="0 0 32 32" fill="none" xmlns="http://www.w3.org/2000/svg">
<path d="M24.9613 6.57161C22.443 4.0533 19.0946 2.66638 15.5332 2.66638C11.9718 2.66638 8.62342 4.0533 6.10511 6.57161C3.5868 9.08992 2.19987 12.4383 2.19987 15.9997C2.19987 19.5613 3.5868 22.9095 6.10511 25.4278C8.62342 27.9461 11.9718 29.333 15.5332 29.333C19.0946 29.333 22.443 27.9461 24.9613 25.4278C27.4796 22.9095 28.8665 19.5613 28.8665 15.9997C28.8665 12.4383 27.4796 9.08992 24.9613 6.57161V6.57161ZM21.3002 19.9251C21.8086 20.4337 21.8086 21.2581 21.3002 21.7665C21.0459 22.0208 20.7127 22.148 20.3794 22.148C20.0461 22.148 19.7129 22.0208 19.4586 21.7665L15.5332 17.8411L11.6078 21.7667C11.3535 22.0208 11.0203 22.148 10.687 22.148C10.3538 22.148 10.0205 22.0208 9.7662 21.7667C9.25778 21.2581 9.25778 20.4337 9.7662 19.9253L13.6918 15.9997L9.7662 12.0743C9.25778 11.5657 9.25778 10.7413 9.7662 10.2329C10.2748 9.72428 11.0992 9.72428 11.6076 10.2329L15.5332 14.1583L19.4586 10.2329C19.9672 9.72449 20.7916 9.72428 21.3 10.2329C21.8086 10.7413 21.8086 11.5657 21.3 12.0743L17.3746 15.9997L21.3002 19.9251Z" fill="#888888"/>
</svg>
