<svg width="25" height="25" viewBox="0 0 25 25" fill="none" xmlns="http://www.w3.org/2000/svg">
<path d="M19.5 7.83331H6.16667C5.24619 7.83331 4.5 8.57951 4.5 9.49998V17.8333C4.5 18.7538 5.24619 19.5 6.16667 19.5H19.5C20.4205 19.5 21.1667 18.7538 21.1667 17.8333V9.49998C21.1667 8.57951 20.4205 7.83331 19.5 7.83331Z" stroke="#1553A0" stroke-width="1.5" stroke-linecap="round" stroke-linejoin="round"/>
<path d="M16.1667 19.5V6.16667C16.1667 5.72464 15.9911 5.30072 15.6785 4.98816C15.366 4.67559 14.942 4.5 14.5 4.5H11.1667C10.7246 4.5 10.3007 4.67559 9.98816 4.98816C9.6756 5.30072 9.5 5.72464 9.5 6.16667V19.5" stroke="#1553A0" stroke-width="1.5" stroke-linecap="round" stroke-linejoin="round"/>
</svg>
