<svg width="43" height="47" viewBox="0 0 43 47" fill="none" xmlns="http://www.w3.org/2000/svg">
<path fill-rule="evenodd" clip-rule="evenodd" d="M16.6666 16.1667C16.6666 15.7067 17.04 15.3334 17.5 15.3334H22.5C22.96 15.3334 23.3333 15.7067 23.3333 16.1667V18.6667H16.6666V16.1667ZM11.6666 42H28.3333V18.6667H26.6666V16.1667C26.6666 13.87 24.7966 12 22.5 12H17.5C15.2033 12 13.3333 13.87 13.3333 16.1667V18.6667H11.6666V42ZM31.6667 18.6666V42C34.4233 42 36.6666 39.7566 36.6666 37V23.6666C36.6666 20.9099 34.4233 18.6666 31.6667 18.6666ZM3.33331 23.6666C3.33331 20.9099 5.57665 18.6666 8.33331 18.6666V42C5.57665 42 3.33331 39.7566 3.33331 37V23.6666Z" fill="#CACACA"/>
<mask id="mask0" style="mask-type:alpha" maskUnits="userSpaceOnUse" x="3" y="12" width="34" height="30">
<path fill-rule="evenodd" clip-rule="evenodd" d="M16.6666 16.1667C16.6666 15.7067 17.04 15.3334 17.5 15.3334H22.5C22.96 15.3334 23.3333 15.7067 23.3333 16.1667V18.6667H16.6666V16.1667ZM11.6666 42H28.3333V18.6667H26.6666V16.1667C26.6666 13.87 24.7966 12 22.5 12H17.5C15.2033 12 13.3333 13.87 13.3333 16.1667V18.6667H11.6666V42ZM31.6667 18.6666V42C34.4233 42 36.6666 39.7566 36.6666 37V23.6666C36.6666 20.9099 34.4233 18.6666 31.6667 18.6666ZM3.33331 23.6666C3.33331 20.9099 5.57665 18.6666 8.33331 18.6666V42C5.57665 42 3.33331 39.7566 3.33331 37V23.6666Z" fill="white"/>
</mask>
<g mask="url(#mask0)">
<rect y="7" width="40" height="40" fill="#CACACA"/>
</g>
<circle cx="32" cy="11" r="11" fill="#DB8A10"/>
<path d="M31.9077 16.1193C33.7741 16.1193 35.1335 15.0497 35.1293 13.5753C35.1335 12.4844 34.4517 11.7003 33.2287 11.5256V11.4574C34.1747 11.2528 34.8097 10.5497 34.8054 9.5696C34.8097 8.24006 33.6761 7.15341 31.9332 7.15341C30.2372 7.15341 28.9247 8.16335 28.8906 9.625H30.4119C30.4375 8.89205 31.1193 8.43608 31.9247 8.43608C32.7386 8.43608 33.2798 8.9304 33.2756 9.66335C33.2798 10.4261 32.6491 10.9332 31.7457 10.9332H30.9744V12.152H31.7457C32.8494 12.152 33.5057 12.706 33.5014 13.4943C33.5057 14.2656 32.8366 14.794 31.9034 14.794C31.0256 14.794 30.348 14.3381 30.3097 13.6264H28.7074C28.75 15.1009 30.0668 16.1193 31.9077 16.1193Z" fill="white"/>
</svg>
