<svg width="22" height="22" viewBox="0 0 22 22" fill="none" xmlns="http://www.w3.org/2000/svg">
<path fill-rule="evenodd" clip-rule="evenodd" d="M9.05746 16.4544C8.80655 16.4544 8.56655 16.3507 8.39473 16.168L3.97382 11.4598C3.62928 11.0944 3.64837 10.5189 4.01382 10.1753C4.38019 9.83165 4.95564 9.84984 5.29837 10.2153L9.04837 14.2071L16.692 5.84165C17.032 5.46984 17.6066 5.44529 17.9775 5.78347C18.3475 6.12165 18.3729 6.69711 18.0347 7.06711L9.72837 16.158C9.55837 16.3453 9.31655 16.4526 9.06382 16.4544H9.05746Z" fill="white"/>
<mask id="mask0" style="mask-type:alpha" maskUnits="userSpaceOnUse" x="3" y="5" width="16" height="12">
<path fill-rule="evenodd" clip-rule="evenodd" d="M9.05746 16.4544C8.80655 16.4544 8.56655 16.3507 8.39473 16.168L3.97382 11.4598C3.62928 11.0944 3.64837 10.5189 4.01382 10.1753C4.38019 9.83165 4.95564 9.84984 5.29837 10.2153L9.04837 14.2071L16.692 5.84165C17.032 5.46984 17.6066 5.44529 17.9775 5.78347C18.3475 6.12165 18.3729 6.69711 18.0347 7.06711L9.72837 16.158C9.55837 16.3453 9.31655 16.4526 9.06382 16.4544H9.05746Z" fill="white"/>
</mask>
<g mask="url(#mask0)">
<rect x="0.0908813" y="0.0908203" width="21.8182" height="21.8182" fill="white"/>
</g>
</svg>
