<svg width="25" height="25" viewBox="0 0 25 25" fill="none" xmlns="http://www.w3.org/2000/svg">
<path fill-rule="evenodd" clip-rule="evenodd" d="M20.0158 5.78879C20.3165 6.07366 20.3293 6.54836 20.0444 6.84906L12.1497 15.1824C12.0081 15.3319 11.8112 15.4166 11.6052 15.4166C11.3993 15.4166 11.2024 15.3319 11.0608 15.1824L8.69235 12.6824C8.40748 12.3817 8.42031 11.907 8.72101 11.6221C9.02171 11.3372 9.49641 11.3501 9.78128 11.6508L11.6052 13.5761L18.9555 5.81745C19.2404 5.51675 19.7151 5.50392 20.0158 5.78879Z" fill="#4A4A4A"/>
<path fill-rule="evenodd" clip-rule="evenodd" d="M6.07895 6.25C5.87258 6.25 5.6659 6.33616 5.50693 6.50396C5.34665 6.67315 5.25 6.91086 5.25 7.16667V18.8333C5.25 19.0891 5.34665 19.3269 5.50693 19.496C5.6659 19.6638 5.87258 19.75 6.07895 19.75H17.1316C17.3379 19.75 17.5446 19.6638 17.7036 19.496C17.8639 19.3269 17.9605 19.0891 17.9605 18.8333V13C17.9605 12.5858 18.2963 12.25 18.7105 12.25C19.1247 12.25 19.4605 12.5858 19.4605 13V18.8333C19.4605 19.4616 19.2245 20.0717 18.7925 20.5277C18.3593 20.985 17.7627 21.25 17.1316 21.25H6.07895C5.44779 21.25 4.85124 20.985 4.418 20.5277C3.98606 20.0717 3.75 19.4616 3.75 18.8333V7.16667C3.75 6.53842 3.98606 5.92829 4.418 5.47235C4.85124 5.01503 5.44779 4.75 6.07895 4.75H14.7632C15.1774 4.75 15.5132 5.08579 15.5132 5.5C15.5132 5.91421 15.1774 6.25 14.7632 6.25H6.07895Z" fill="#4A4A4A"/>
</svg>
