<svg width="20" height="20" viewBox="0 0 20 20" fill="none" xmlns="http://www.w3.org/2000/svg">
<path fill-rule="evenodd" clip-rule="evenodd" d="M13.3334 9.16675H10.8334V6.66675C10.8334 6.20592 10.46 5.83342 10 5.83342C9.54002 5.83342 9.16669 6.20592 9.16669 6.66675V10.0001C9.16669 10.4609 9.54002 10.8334 10 10.8334H13.3334C13.7942 10.8334 14.1667 10.4609 14.1667 10.0001C14.1667 9.53925 13.7942 9.16675 13.3334 9.16675ZM10 16.6667C6.32418 16.6667 3.33335 13.6759 3.33335 10.0001C3.33335 6.32425 6.32418 3.33342 10 3.33342C13.6758 3.33342 16.6667 6.32425 16.6667 10.0001C16.6667 13.6759 13.6758 16.6667 10 16.6667ZM10 1.66675C5.40502 1.66675 1.66669 5.40508 1.66669 10.0001C1.66669 14.5951 5.40502 18.3334 10 18.3334C14.595 18.3334 18.3334 14.5951 18.3334 10.0001C18.3334 5.40508 14.595 1.66675 10 1.66675Z" fill="#CACACA"/>
<mask id="mask0" style="mask-type:alpha" maskUnits="userSpaceOnUse" x="1" y="1" width="18" height="18">
<path fill-rule="evenodd" clip-rule="evenodd" d="M13.3334 9.16675H10.8334V6.66675C10.8334 6.20592 10.46 5.83342 10 5.83342C9.54002 5.83342 9.16669 6.20592 9.16669 6.66675V10.0001C9.16669 10.4609 9.54002 10.8334 10 10.8334H13.3334C13.7942 10.8334 14.1667 10.4609 14.1667 10.0001C14.1667 9.53925 13.7942 9.16675 13.3334 9.16675ZM10 16.6667C6.32418 16.6667 3.33335 13.6759 3.33335 10.0001C3.33335 6.32425 6.32418 3.33342 10 3.33342C13.6758 3.33342 16.6667 6.32425 16.6667 10.0001C16.6667 13.6759 13.6758 16.6667 10 16.6667ZM10 1.66675C5.40502 1.66675 1.66669 5.40508 1.66669 10.0001C1.66669 14.5951 5.40502 18.3334 10 18.3334C14.595 18.3334 18.3334 14.5951 18.3334 10.0001C18.3334 5.40508 14.595 1.66675 10 1.66675Z" fill="white"/>
</mask>
<g mask="url(#mask0)">
<rect width="20" height="20" fill="#CACACA"/>
</g>
</svg>
