<svg width="32" height="32" viewBox="0 0 32 32" fill="none" xmlns="http://www.w3.org/2000/svg">
<path d="M15.3997 2.66638C8.04803 2.66638 2.06641 8.648 2.06641 15.9997C2.06641 23.3514 8.04803 29.333 15.3997 29.333C22.7515 29.333 28.7331 23.3514 28.7331 15.9997C28.7331 8.648 22.7515 2.66638 15.3997 2.66638ZM22.8517 12.4909L14.3304 20.9454C13.8291 21.4467 13.0271 21.4801 12.4925 20.9788L7.98119 16.8686C7.44652 16.3673 7.41311 15.5319 7.88094 14.9972C8.3822 14.4625 9.21762 14.4291 9.75229 14.9304L13.3279 18.2052L20.9469 10.5862C21.4816 10.0515 22.317 10.0515 22.8517 10.5862C23.3864 11.1209 23.3864 11.9563 22.8517 12.4909Z" fill="#888888"/>
</svg>
