<svg width="20" height="20" viewBox="0 0 20 20" fill="none" xmlns="http://www.w3.org/2000/svg">
<path d="M17.5 11.6666C17.2789 11.6666 17.067 11.7544 16.9107 11.9107C16.7544 12.067 16.6666 12.2789 16.6666 12.5V15.8333C16.6666 16.0543 16.5788 16.2663 16.4225 16.4225C16.2663 16.5788 16.0543 16.6666 15.8333 16.6666H4.16663C3.94561 16.6666 3.73365 16.5788 3.57737 16.4225C3.42109 16.2663 3.33329 16.0543 3.33329 15.8333V12.5C3.33329 12.2789 3.2455 12.067 3.08922 11.9107C2.93293 11.7544 2.72097 11.6666 2.49996 11.6666C2.27895 11.6666 2.06698 11.7544 1.9107 11.9107C1.75442 12.067 1.66663 12.2789 1.66663 12.5V15.8333C1.66663 16.4963 1.93002 17.1322 2.39886 17.6011C2.8677 18.0699 3.50358 18.3333 4.16663 18.3333H15.8333C16.4963 18.3333 17.1322 18.0699 17.6011 17.6011C18.0699 17.1322 18.3333 16.4963 18.3333 15.8333V12.5C18.3333 12.2789 18.2455 12.067 18.0892 11.9107C17.9329 11.7544 17.721 11.6666 17.5 11.6666ZM9.40829 13.0916C9.48755 13.1675 9.581 13.227 9.68329 13.2666C9.78304 13.3107 9.8909 13.3335 9.99996 13.3335C10.109 13.3335 10.2169 13.3107 10.3166 13.2666C10.4189 13.227 10.5124 13.1675 10.5916 13.0916L13.925 9.75829C14.0819 9.60137 14.17 9.38854 14.17 9.16663C14.17 8.94471 14.0819 8.73188 13.925 8.57496C13.768 8.41804 13.5552 8.32988 13.3333 8.32988C13.1114 8.32988 12.8985 8.41804 12.7416 8.57496L10.8333 10.4916V2.49996C10.8333 2.27895 10.7455 2.06698 10.5892 1.9107C10.4329 1.75442 10.221 1.66663 9.99996 1.66663C9.77895 1.66663 9.56698 1.75442 9.4107 1.9107C9.25442 2.06698 9.16663 2.27895 9.16663 2.49996V10.4916L7.25829 8.57496C7.18059 8.49726 7.08835 8.43563 6.98683 8.39358C6.88532 8.35153 6.77651 8.32988 6.66663 8.32988C6.55674 8.32988 6.44794 8.35153 6.34642 8.39358C6.2449 8.43563 6.15266 8.49726 6.07496 8.57496C5.99726 8.65266 5.93563 8.7449 5.89358 8.84642C5.85153 8.94794 5.82988 9.05674 5.82988 9.16663C5.82988 9.27651 5.85153 9.38532 5.89358 9.48683C5.93563 9.58835 5.99726 9.68059 6.07496 9.75829L9.40829 13.0916Z" fill="#1553A0"/>
</svg>
