<svg width="13" height="7" viewBox="0 0 13 7" fill="none" xmlns="http://www.w3.org/2000/svg">
<path fill-rule="evenodd" clip-rule="evenodd" d="M6.49992 6.50625C6.30042 6.50625 6.10179 6.43644 5.93992 6.29591L0.68992 1.76266C0.31892 1.44261 0.26817 0.870512 0.57792 0.486093C0.886795 0.101673 1.43805 0.0499942 1.80992 0.370042L6.50954 4.42821L11.2013 0.516012C11.5775 0.202311 12.1288 0.263964 12.4315 0.653823C12.7343 1.04368 12.6748 1.61397 12.2985 1.92857L7.04854 6.30588C6.88842 6.43916 6.69417 6.50625 6.49992 6.50625Z" fill="#4A4A4A"/>
<mask id="mask0" style="mask-type:alpha" maskUnits="userSpaceOnUse" x="0" y="0" width="13" height="7">
<path fill-rule="evenodd" clip-rule="evenodd" d="M6.49992 6.50625C6.30042 6.50625 6.10179 6.43644 5.93992 6.29591L0.68992 1.76266C0.31892 1.44261 0.26817 0.870512 0.57792 0.486093C0.886795 0.101673 1.43805 0.0499942 1.80992 0.370042L6.50954 4.42821L11.2013 0.516012C11.5775 0.202311 12.1288 0.263964 12.4315 0.653823C12.7343 1.04368 12.6748 1.61397 12.2985 1.92857L7.04854 6.30588C6.88842 6.43916 6.69417 6.50625 6.49992 6.50625Z" fill="white"/>
</mask>
<g mask="url(#mask0)">
<rect x="-4" y="-8" width="21" height="21.7596" fill="#4A4A4A"/>
</g>
</svg>
