<svg width="341" height="30" viewBox="0 0 341 30" fill="none" xmlns="http://www.w3.org/2000/svg">
<path d="M18.8748 5.35558C18.8748 7.63585 17.0206 9.49098 14.7415 9.49098C13.6066 9.49098 12.5772 9.03072 11.8296 8.28724L10.4005 13.2917H19.0826L17.7983 8.79446L22.7152 9.83799L23.8483 4.44507L18.308 3.26929C18.6676 3.88227 18.8748 4.59497 18.8748 5.35558V5.35558Z" fill="#1553A0"/>
<path d="M7.37836 6.58294L11.1404 7.38136C10.8023 6.78215 10.6084 6.0912 10.6084 5.35545C10.6084 3.97542 11.2882 2.75197 12.3296 2.0004L8.52118 1.19214L7.37836 6.58294Z" fill="#1553A0"/>
<path d="M27.798 3.448L25.6072 4.63773L23.37 15.2857C26.9728 15.2857 29.1745 13.2682 29.8495 10.0845C30.3076 7.92372 29.7492 5.08434 27.798 3.448V3.448Z" fill="#76DDFB"/>
<path d="M8.77665 18.9785L7.7359 22.6231C10.1308 22.6599 12.646 23.041 14.8788 23.3799C15.5704 23.4848 18.5351 24.1788 22.1917 24.1788L20.7066 18.9785H8.77665Z" fill="#1859A9"/>
<path d="M9.89833 15.0503L9.27887 17.2194H20.2044L19.585 15.0503H9.89833Z" fill="#1859A9"/>
<path d="M15.2865 7.66306C16.563 7.36117 17.3532 6.08109 17.0515 4.80394C16.7497 3.52679 15.4703 2.73619 14.1938 3.03809C12.9174 3.33998 12.1272 4.62005 12.4289 5.89721C12.7307 7.17436 14.0101 7.96496 15.2865 7.66306Z" fill="#1859A9"/>
<path d="M5.64599 22.6924V6.21583L6.80158 0.827726L2.90149 0L1.75854 5.3908L3.88816 5.84274V22.9689C4.4315 22.8419 5.0141 22.7498 5.64599 22.6924V22.6924Z" fill="#1553A0"/>
<path d="M28.5774 27.232C27.6973 26.4405 26.4832 26.0222 25.0665 26.0222C22.5407 26.0222 19.6798 25.8138 16.5633 25.4028C15.9768 25.3254 15.3152 25.225 14.6148 25.1187C12.3616 24.7766 9.73621 24.3782 7.36402 24.3782C6.22213 24.3782 5.13913 24.4704 4.1841 24.7058C1.68148 25.3227 0 27.1769 0 30.0001H30.0003C29.8213 28.8622 29.3391 27.917 28.5774 27.232V27.232Z" fill="#1859A9"/>
<path d="M47.724 24.2663C51.0976 24.2663 53.3703 22.6239 53.903 20.0938L50.4051 19.8629C50.0234 20.9016 49.0468 21.4432 47.7862 21.4432C45.8952 21.4432 44.6967 20.1914 44.6967 18.1584V18.1495H53.9829V17.1108C53.9829 12.4766 51.1775 10.1861 47.5731 10.1861C43.5603 10.1861 40.9591 13.0359 40.9591 17.244C40.9591 21.5675 43.5248 24.2663 47.724 24.2663ZM44.6967 15.8058C44.7766 14.2521 45.9573 13.0092 47.6352 13.0092C49.2776 13.0092 50.414 14.1811 50.4229 15.8058H44.6967ZM59.3451 24H63.0916L66.5451 12.1126H66.6871L70.1495 24H73.8959L79.0983 5.81818H74.8991L71.8895 18.478H71.7297L68.4183 5.81818H64.8227L61.5024 18.4513H61.3515L58.3419 5.81818H54.1427L59.3451 24ZM85.8344 24.2663C89.208 24.2663 91.4807 22.6239 92.0134 20.0938L88.5155 19.8629C88.1337 20.9016 87.1572 21.4432 85.8965 21.4432C84.0055 21.4432 82.807 20.1914 82.807 18.1584V18.1495H92.0933V17.1108C92.0933 12.4766 89.2879 10.1861 85.6835 10.1861C81.6707 10.1861 79.0695 13.0359 79.0695 17.244C79.0695 21.5675 81.6352 24.2663 85.8344 24.2663ZM82.807 15.8058C82.8869 14.2521 84.0677 13.0092 85.7456 13.0092C87.388 13.0092 88.5244 14.1811 88.5332 15.8058H82.807ZM98.3433 5.81818H94.5613V24H98.3433V5.81818ZM105.155 5.81818H101.373V24H105.155V5.81818ZM114.459 24H125.441V21.6385H117.202V5.81818H114.459V24ZM134.101 24.2752C137.945 24.2752 140.458 21.4609 140.458 17.244C140.458 13.0004 137.945 10.1861 134.101 10.1861C130.257 10.1861 127.744 13.0004 127.744 17.244C127.744 21.4609 130.257 24.2752 134.101 24.2752ZM134.11 22.0469C131.597 22.0469 130.426 19.854 130.426 17.2351C130.426 14.625 131.597 12.4055 134.11 12.4055C136.605 12.4055 137.776 14.625 137.776 17.2351C137.776 19.854 136.605 22.0469 134.11 22.0469ZM149.138 29.3977C152.609 29.3977 155.29 27.8086 155.29 24.3018V10.3636H152.689V12.5742H152.494C152.023 11.7308 151.082 10.1861 148.543 10.1861C145.249 10.1861 142.826 12.7873 142.826 17.1286C142.826 21.4787 145.303 23.7958 148.525 23.7958C151.029 23.7958 151.996 22.3842 152.476 21.5142H152.645V24.1953C152.645 26.3349 151.18 27.2582 149.164 27.2582C146.954 27.2582 146.093 26.1484 145.622 25.3672L143.341 26.3082C144.06 27.9773 145.88 29.3977 149.138 29.3977ZM149.111 21.5941C146.741 21.5941 145.507 19.7741 145.507 17.093C145.507 14.4741 146.714 12.4411 149.111 12.4411C151.428 12.4411 152.671 14.332 152.671 17.093C152.671 19.9073 151.402 21.5941 149.111 21.5941Z" fill="#1553A0"/>
</svg>
