<svg width="32" height="36" viewBox="0 0 32 36" fill="none" xmlns="http://www.w3.org/2000/svg">
<g filter="url(#filter0_d)">
<path fill-rule="evenodd" clip-rule="evenodd" d="M6.66667 4H12C13.4707 4 14.6667 5.196 14.6667 6.66667V12C14.6667 13.4707 13.4707 14.6667 12 14.6667H6.66667C5.196 14.6667 4 13.4707 4 12V6.66667C4 5.196 5.196 4 6.66667 4ZM20 4H25.3333C26.804 4 28 5.196 28 6.66667V12C28 13.4707 26.804 14.6667 25.3333 14.6667H20C18.5293 14.6667 17.3333 13.4707 17.3333 12V6.66667C17.3333 5.196 18.5293 4 20 4ZM12 17.3333H6.66667C5.196 17.3333 4 18.5293 4 20V25.3333C4 26.804 5.196 28 6.66667 28H12C13.4707 28 14.6667 26.804 14.6667 25.3333V20C14.6667 18.5293 13.4707 17.3333 12 17.3333ZM20 17.3333H25.3333C26.804 17.3333 28 18.5293 28 20V25.3333C28 26.804 26.804 28 25.3333 28H20C18.5293 28 17.3333 26.804 17.3333 25.3333V20C17.3333 18.5293 18.5293 17.3333 20 17.3333Z" fill="#888888"/>
<mask id="mask0" style="mask-type:alpha" maskUnits="userSpaceOnUse" x="4" y="4" width="24" height="24">
<path fill-rule="evenodd" clip-rule="evenodd" d="M6.66667 4H12C13.4707 4 14.6667 5.196 14.6667 6.66667V12C14.6667 13.4707 13.4707 14.6667 12 14.6667H6.66667C5.196 14.6667 4 13.4707 4 12V6.66667C4 5.196 5.196 4 6.66667 4ZM20 4H25.3333C26.804 4 28 5.196 28 6.66667V12C28 13.4707 26.804 14.6667 25.3333 14.6667H20C18.5293 14.6667 17.3333 13.4707 17.3333 12V6.66667C17.3333 5.196 18.5293 4 20 4ZM12 17.3333H6.66667C5.196 17.3333 4 18.5293 4 20V25.3333C4 26.804 5.196 28 6.66667 28H12C13.4707 28 14.6667 26.804 14.6667 25.3333V20C14.6667 18.5293 13.4707 17.3333 12 17.3333ZM20 17.3333H25.3333C26.804 17.3333 28 18.5293 28 20V25.3333C28 26.804 26.804 28 25.3333 28H20C18.5293 28 17.3333 26.804 17.3333 25.3333V20C17.3333 18.5293 18.5293 17.3333 20 17.3333Z" fill="white"/>
</mask>
<g mask="url(#mask0)">
<rect width="32" height="32" fill="#888888"/>
</g>
</g>
<defs>
<filter id="filter0_d" x="-4" y="0" width="40" height="40" filterUnits="userSpaceOnUse" color-interpolation-filters="sRGB">
<feFlood flood-opacity="0" result="BackgroundImageFix"/>
<feColorMatrix in="SourceAlpha" type="matrix" values="0 0 0 0 0 0 0 0 0 0 0 0 0 0 0 0 0 0 127 0" result="hardAlpha"/>
<feOffset dy="4"/>
<feGaussianBlur stdDeviation="2"/>
<feComposite in2="hardAlpha" operator="out"/>
<feColorMatrix type="matrix" values="0 0 0 0 0 0 0 0 0 0 0 0 0 0 0 0 0 0 0.25 0"/>
<feBlend mode="normal" in2="BackgroundImageFix" result="effect1_dropShadow"/>
<feBlend mode="normal" in="SourceGraphic" in2="effect1_dropShadow" result="shape"/>
</filter>
</defs>
</svg>
