<svg width="32" height="32" viewBox="0 0 32 32" fill="none" xmlns="http://www.w3.org/2000/svg">
<path d="M29.485 14.5139L17.5206 3.04401C16.9955 2.54049 16.2035 2.54054 15.6786 3.04396L3.71409 14.5139C3.29342 14.9172 3.15446 15.5386 3.35998 16.0969C3.56555 16.6553 4.06607 17.016 4.63519 17.016H6.54612V28.5079C6.54612 28.9636 6.89726 29.333 7.33033 29.333H13.8883C14.3214 29.333 14.6725 28.9636 14.6725 28.5079V21.5304H18.5268V28.508C18.5268 28.9636 18.8779 29.333 19.311 29.333H25.8687C26.3018 29.333 26.6529 28.9637 26.6529 28.508V17.016H28.5642C29.1333 17.016 29.6338 16.6552 29.8394 16.0969C30.0447 15.5386 29.9057 14.9172 29.485 14.5139Z" fill="#888888"/>
<path d="M26.4474 4.31323H21.1808L27.2316 10.1017V5.13825C27.2316 4.68261 26.8806 4.31323 26.4474 4.31323Z" fill="#888888"/>
</svg>
