<svg width="22" height="23" viewBox="0 0 22 23" fill="none" xmlns="http://www.w3.org/2000/svg">
<path fill-rule="evenodd" clip-rule="evenodd" d="M14.6837 10.2887L12.2133 7.81833L13.999 6.03174L16.4685 8.50124L14.6837 10.2887ZM17.7866 7.22616L17.7857 7.22524L15.2759 4.71541C14.5966 4.03799 13.4297 4.00591 12.7862 4.65216L4.53987 12.8985C4.24104 13.1964 4.05587 13.5924 4.01737 14.0113L3.66995 17.8338C3.64612 18.1042 3.74237 18.3719 3.93487 18.5644C4.10812 18.7377 4.34187 18.833 4.58295 18.833C4.61137 18.833 4.63887 18.8321 4.66637 18.8293L8.48887 18.4819C8.9087 18.4434 9.30379 18.2592 9.6017 17.9612L17.849 9.71399C18.5163 9.04483 18.4879 7.92833 17.7866 7.22616Z" fill="#4A4A4A"/>
<mask id="mask0" style="mask-type:alpha" maskUnits="userSpaceOnUse" x="3" y="4" width="16" height="15">
<path fill-rule="evenodd" clip-rule="evenodd" d="M14.6837 10.2887L12.2133 7.81833L13.999 6.03174L16.4685 8.50124L14.6837 10.2887ZM17.7866 7.22616L17.7857 7.22524L15.2759 4.71541C14.5966 4.03799 13.4297 4.00591 12.7862 4.65216L4.53987 12.8985C4.24104 13.1964 4.05587 13.5924 4.01737 14.0113L3.66995 17.8338C3.64612 18.1042 3.74237 18.3719 3.93487 18.5644C4.10812 18.7377 4.34187 18.833 4.58295 18.833C4.61137 18.833 4.63887 18.8321 4.66637 18.8293L8.48887 18.4819C8.9087 18.4434 9.30379 18.2592 9.6017 17.9612L17.849 9.71399C18.5163 9.04483 18.4879 7.92833 17.7866 7.22616Z" fill="white"/>
</mask>
<g mask="url(#mask0)">
<rect y="0.5" width="22" height="22" fill="#1553A0"/>
</g>
</svg>
