<svg width="85" height="44" viewBox="0 0 85 44" fill="none" xmlns="http://www.w3.org/2000/svg">
<path fill-rule="evenodd" clip-rule="evenodd" d="M34.75 3.5C34.75 1.567 36.317 0 38.25 0H51.75C53.683 0 55.25 1.567 55.25 3.5V20.5C55.25 22.433 53.683 24 51.75 24H49.25C48.4216 24 47.75 23.3284 47.75 22.5C47.75 21.6716 48.4216 21 49.25 21H51.75C52.0261 21 52.25 20.7761 52.25 20.5V3.5C52.25 3.22386 52.0261 3 51.75 3H38.25C37.9739 3 37.75 3.22386 37.75 3.5V5C37.75 5.82843 37.0784 6.5 36.25 6.5C35.4216 6.5 34.75 5.82843 34.75 5V3.5Z" fill="#76DDFB"/>
<path fill-rule="evenodd" clip-rule="evenodd" d="M38.4312 6.46567C39.0882 5.54588 40.1489 5 41.2792 5H45.75C47.683 5 49.25 6.567 49.25 8.5V24H33.25C31.317 24 29.75 22.433 29.75 20.5V12C29.75 10.067 31.317 8.5 33.25 8.5H36.9781L38.4312 6.46567ZM41.2792 8C41.1178 8 40.9662 8.07798 40.8724 8.20938L38.9706 10.8719C38.689 11.2661 38.2344 11.5 37.75 11.5H33.25C32.9739 11.5 32.75 11.7239 32.75 12V20.5C32.75 20.7761 32.9739 21 33.25 21H46.25V8.5C46.25 8.22386 46.0261 8 45.75 8H41.2792Z" fill="#1553A0"/>
<path fill-rule="evenodd" clip-rule="evenodd" d="M38.75 17.5C38.75 16.6716 39.4216 16 40.25 16H43.25C44.0784 16 44.75 16.6716 44.75 17.5C44.75 18.3284 44.0784 19 43.25 19H40.25C39.4216 19 38.75 18.3284 38.75 17.5Z" fill="#1553A0"/>
<path d="M21.0265 33.5071C20.7779 31.071 18.9632 29.679 16.5023 29.679C13.7878 29.679 11.6749 31.5433 11.6749 34.9091C11.6749 38.2599 13.7381 40.1392 16.5023 40.1392C19.2963 40.1392 20.8425 38.2401 21.0265 36.4354L18.5407 36.4205C18.3667 37.3999 17.6309 37.9815 16.552 37.9815C15.1003 37.9815 14.1855 36.9325 14.1855 34.9091C14.1855 32.9652 15.0804 31.8366 16.5669 31.8366C17.6855 31.8366 18.4164 32.4879 18.5407 33.5071H21.0265ZM24.5874 40.1293C25.6513 40.1293 26.3871 39.7166 26.8047 38.9361H26.8643V40H29.1513V34.8097C29.1513 33.1939 27.7145 32.2642 25.7706 32.2642C23.7173 32.2642 22.554 33.2983 22.3601 34.6903L24.6023 34.7699C24.7067 34.2827 25.1094 33.9844 25.7507 33.9844C26.3473 33.9844 26.7251 34.2727 26.7251 34.7848V34.8097C26.7251 35.277 26.218 35.3764 24.9155 35.4908C23.3693 35.62 22.0767 36.1918 22.0767 37.8821C22.0767 39.3935 23.1257 40.1293 24.5874 40.1293ZM25.3381 38.5384C24.7763 38.5384 24.3786 38.2699 24.3786 37.7628C24.3786 37.2706 24.7663 36.9723 25.4574 36.8679C25.9098 36.8033 26.4666 36.7038 26.7401 36.5597V37.2855C26.7401 38.0312 26.1136 38.5384 25.3381 38.5384ZM37.3047 34.6953C37.1754 33.1839 35.9375 32.2642 33.8693 32.2642C31.8011 32.2642 30.4837 33.1641 30.4936 34.6953C30.4837 35.8686 31.2344 36.6243 32.7607 36.9077L34.093 37.1612C34.7244 37.2855 35.0128 37.4844 35.0227 37.8224C35.0128 38.2053 34.5852 38.4588 33.9638 38.4588C33.2727 38.4588 32.8054 38.1605 32.701 37.6037L30.2997 37.6634C30.4737 39.1747 31.7713 40.1442 33.9538 40.1442C35.9972 40.1442 37.4837 39.125 37.4936 37.554C37.4837 36.4403 36.7479 35.7791 35.2266 35.4858L33.755 35.2074C33.1087 35.0781 32.8999 34.8494 32.9048 34.5561C32.8999 34.1683 33.3523 33.9297 33.9141 33.9297C34.5554 33.9297 35.0028 34.2727 35.0724 34.755L37.3047 34.6953ZM42.2601 40.1442C44.2637 40.1442 45.5811 39.1747 45.8596 37.6733L43.6273 37.6087C43.4384 38.1158 42.9412 38.3892 42.3049 38.3892C41.3702 38.3892 40.7935 37.7678 40.7935 36.8331V36.7685H45.8844V36.1619C45.8844 33.6463 44.3532 32.2642 42.1855 32.2642C39.8787 32.2642 38.3972 33.8452 38.3972 36.2116C38.3972 38.6577 39.8588 40.1442 42.2601 40.1442ZM40.7935 35.3565C40.8283 34.5959 41.4299 34.0192 42.2353 34.0192C43.0357 34.0192 43.6124 34.576 43.6223 35.3565H40.7935ZM48.6673 40L49.5075 37.4893H53.3356L54.1808 40H56.1495L52.56 29.8182H50.283L46.6985 40H48.6673ZM50.0046 36.0078L51.3817 31.9062H51.4613L52.8384 36.0078H50.0046ZM57.411 42.8636H59.2108V38.7969H59.2853C59.5687 39.3537 60.1603 40.1342 61.4728 40.1342C63.2725 40.1342 64.6199 38.7074 64.6199 36.1918C64.6199 33.6463 63.2328 32.2642 61.4679 32.2642C60.1206 32.2642 59.5588 33.0746 59.2853 33.6264H59.1809V32.3636H57.411V42.8636ZM59.176 36.1818C59.176 34.7003 59.8123 33.7408 60.9707 33.7408C62.1689 33.7408 62.7853 34.7599 62.7853 36.1818C62.7853 37.6136 62.1589 38.6577 60.9707 38.6577C59.8223 38.6577 59.176 37.6634 59.176 36.1818ZM66.161 42.8636H67.9608V38.7969H68.0353C68.3187 39.3537 68.9103 40.1342 70.2228 40.1342C72.0225 40.1342 73.3699 38.7074 73.3699 36.1918C73.3699 33.6463 71.9828 32.2642 70.2179 32.2642C68.8706 32.2642 68.3088 33.0746 68.0353 33.6264H67.9309V32.3636H66.161V42.8636ZM67.926 36.1818C67.926 34.7003 68.5623 33.7408 69.7207 33.7408C70.9189 33.7408 71.5353 34.7599 71.5353 36.1818C71.5353 37.6136 70.9089 38.6577 69.7207 38.6577C68.5723 38.6577 67.926 37.6634 67.926 36.1818Z" fill="#1553A0"/>
</svg>
