<svg width="40" height="40" viewBox="0 0 40 40" fill="none" xmlns="http://www.w3.org/2000/svg">
<path d="M25.1663 7.14069C25.1663 10.1811 22.6941 12.6546 19.6553 12.6546C18.1421 12.6546 16.7696 12.0409 15.7727 11.0496L13.8672 17.7222H25.4434L23.731 11.7259L30.2868 13.1172L31.7976 5.92668L24.4106 4.35898C24.89 5.17629 25.1663 6.12656 25.1663 7.14069Z" fill="#1553A0"/>
<path d="M9.83775 8.77726L14.8538 9.84181C14.403 9.04287 14.1444 8.1216 14.1444 7.14061C14.1444 5.30057 15.0508 3.66931 16.4394 2.66722L11.3615 1.58954L9.83775 8.77726Z" fill="#1553A0"/>
<path d="M37.0639 4.59735L34.1428 6.18366L31.1599 20.381C35.9637 20.381 38.8992 17.6909 39.7992 13.446C40.41 10.565 39.6654 6.77913 37.0639 4.59735Z" fill="#76DDFB"/>
<path d="M11.7022 25.3045L10.3145 30.1639C13.5077 30.213 16.8613 30.7211 19.8384 31.173C20.7604 31.3129 24.7134 32.2383 29.5889 32.2383L27.6088 25.3045H11.7022Z" fill="#1859A9"/>
<path d="M13.1978 20.0671L12.3718 22.9593H26.9392L26.1132 20.0671H13.1978Z" fill="#1859A9"/>
<path d="M20.382 10.2174C22.084 9.81491 23.1375 8.10816 22.7352 6.40529C22.3329 4.70243 20.627 3.6483 18.9251 4.05082C17.2231 4.45335 16.1695 6.16011 16.5718 7.86297C16.9741 9.56584 18.68 10.62 20.382 10.2174Z" fill="#1859A9"/>
<path d="M7.528 30.2565V8.28776L9.06879 1.10363L3.86867 0L2.34476 7.18772L5.18423 7.7903V30.6251C5.90869 30.4558 6.68549 30.333 7.528 30.2565Z" fill="#1553A0"/>
<path d="M38.1031 36.3092C36.9296 35.2538 35.3109 34.6961 33.4219 34.6961C30.0541 34.6961 26.2396 34.4182 22.0843 33.8701C21.3023 33.767 20.4202 33.6331 19.4864 33.4913C16.4821 33.0353 12.9816 32.504 9.81866 32.504C8.29615 32.504 6.85216 32.6271 5.57879 32.9409C2.24197 33.7634 0 36.2356 0 39.9999H40.0003C39.7617 38.4827 39.1186 37.2225 38.1031 36.3092Z" fill="#1859A9"/>
</svg>
