<svg width="32" height="32" viewBox="0 0 32 32" fill="none" xmlns="http://www.w3.org/2000/svg">
<path d="M29.3377 4.10704C29.1179 3.88739 28.8574 3.77721 28.5564 3.77721C28.2555 3.77721 27.9954 3.88739 27.7752 4.10704L25.5184 6.34699C24.28 5.17785 22.862 4.27196 21.2649 3.62974C19.6679 2.98746 18.024 2.66638 16.3341 2.66638C13.1511 2.66638 10.3735 3.6298 8.00069 5.55706C5.62785 7.48408 4.06543 9.99835 3.3131 13.1005V13.2219C3.3131 13.3724 3.36801 13.5027 3.47801 13.6125C3.58801 13.7225 3.71814 13.7774 3.86859 13.7774H7.32339C7.57812 13.7774 7.75161 13.6442 7.84428 13.3782C8.33033 12.2208 8.63693 11.5438 8.76439 11.3469C9.57449 10.0275 10.6509 8.99151 11.9935 8.23917C13.3363 7.48688 14.783 7.11059 16.3338 7.11059C18.6605 7.11059 20.6801 7.90349 22.3932 9.48919L19.9969 11.8849C19.7776 12.1049 19.6673 12.3655 19.6673 12.6664C19.6673 12.9673 19.7775 13.2277 19.9969 13.4476C20.2171 13.6676 20.4776 13.7775 20.7786 13.7775H28.5564C28.8574 13.7775 29.1179 13.6676 29.3377 13.4476C29.5574 13.2277 29.6673 12.9674 29.6673 12.6664V4.88833C29.6673 4.58738 29.5581 4.32705 29.3377 4.10704Z" fill="#888888"/>
<path d="M28.6774 18.2223H25.3441C25.0894 18.2223 24.9158 18.3553 24.8235 18.6216C24.3376 19.779 24.0306 20.4558 23.9035 20.6526C23.0931 21.9718 22.0167 23.0081 20.6744 23.7604C19.3315 24.5129 17.8848 24.8888 16.334 24.8888C15.2114 24.8888 14.1291 24.6807 13.0875 24.2641C12.0459 23.8471 11.114 23.2567 10.2924 22.4927L12.6709 20.1143C12.8908 19.8946 13.0008 19.6338 13.0008 19.3331C13.0008 19.0322 12.8908 18.7714 12.6709 18.5518C12.451 18.3317 12.1907 18.2216 11.8897 18.2216H4.11182C3.81069 18.2216 3.55025 18.3317 3.33036 18.5518C3.11048 18.7715 3.0006 19.0322 3.0006 19.3331V27.1112C3.0006 27.4119 3.11048 27.6726 3.33042 27.8924C3.55049 28.1119 3.81094 28.2225 4.11188 28.2225C4.41276 28.2225 4.67309 28.112 4.8931 27.8924L7.13263 25.6526C8.37113 26.8329 9.78038 27.7417 11.3603 28.3783C12.9401 29.0151 14.575 29.3331 16.2647 29.3331C19.4362 29.3331 22.2023 28.3695 24.5634 26.4425C26.9245 24.5156 28.4754 22.0008 29.2165 18.899C29.2281 18.8759 29.2336 18.8353 29.2336 18.7777C29.2336 18.627 29.1784 18.4972 29.0685 18.3868C28.9584 18.2774 28.8281 18.2223 28.6774 18.2223Z" fill="#888888"/>
</svg>
