<svg width="32" height="32" viewBox="0 0 32 32" fill="none" xmlns="http://www.w3.org/2000/svg">
<path d="M24.6885 27.1108H23.5774V23.4742C23.5774 21.6653 22.8074 19.9342 21.463 18.7253L19.5819 17.033C19.2853 16.7653 19.1219 16.3986 19.1219 15.9997C19.1219 15.6008 19.2853 15.2342 19.5819 14.9675L21.463 13.2753C22.8074 12.0642 23.5774 10.3342 23.5774 8.52527V4.8886H24.6885C25.3029 4.8886 25.7996 4.39083 25.7996 3.77749C25.7996 3.16416 25.3029 2.66638 24.6885 2.66638H6.91109C6.29666 2.66638 5.80001 3.16416 5.80001 3.77749C5.80001 4.39083 6.29666 4.8886 6.91109 4.8886H8.02218V8.52527C8.02218 10.3342 8.79217 12.0653 10.1366 13.2742L12.0177 14.9664C12.3143 15.2342 12.4776 15.6008 12.4776 15.9997C12.4776 16.3986 12.3143 16.7653 12.0177 17.0319L10.1366 18.7242C8.79217 19.9353 8.02218 21.6653 8.02218 23.4742V27.1108H6.91109C6.29666 27.1108 5.80001 27.6086 5.80001 28.2219C5.80001 28.8353 6.29666 29.333 6.91109 29.333H24.6885C25.3029 29.333 25.7996 28.8353 25.7996 28.2219C25.7996 27.6086 25.3029 27.1108 24.6885 27.1108ZM11.3554 23.5875C11.3554 22.7708 11.6732 22.0042 12.251 21.4264L15.2109 18.4664C15.5365 18.1408 16.0642 18.1408 16.3898 18.4664L19.3497 21.4264C19.9275 22.0042 20.2453 22.7708 20.2453 23.5875V27.1108H11.3554V23.5875Z" fill="#1553A0"/>
</svg>
