<svg width="20" height="20" viewBox="0 0 20 20" fill="none" xmlns="http://www.w3.org/2000/svg">
<path fill-rule="evenodd" clip-rule="evenodd" d="M15.8333 9.16665H10.8333V4.16665C10.8333 3.70581 10.46 3.33331 9.99998 3.33331C9.53998 3.33331 9.16665 3.70581 9.16665 4.16665V9.16665H4.16665C3.70665 9.16665 3.33331 9.53915 3.33331 9.99998C3.33331 10.4608 3.70665 10.8333 4.16665 10.8333H9.16665V15.8333C9.16665 16.2941 9.53998 16.6666 9.99998 16.6666C10.46 16.6666 10.8333 16.2941 10.8333 15.8333V10.8333H15.8333C16.2933 10.8333 16.6666 10.4608 16.6666 9.99998C16.6666 9.53915 16.2933 9.16665 15.8333 9.16665Z" fill="white"/>
<mask id="mask0" style="mask-type:alpha" maskUnits="userSpaceOnUse" x="3" y="3" width="14" height="14">
<path fill-rule="evenodd" clip-rule="evenodd" d="M15.8333 9.16665H10.8333V4.16665C10.8333 3.70581 10.46 3.33331 9.99998 3.33331C9.53998 3.33331 9.16665 3.70581 9.16665 4.16665V9.16665H4.16665C3.70665 9.16665 3.33331 9.53915 3.33331 9.99998C3.33331 10.4608 3.70665 10.8333 4.16665 10.8333H9.16665V15.8333C9.16665 16.2941 9.53998 16.6666 9.99998 16.6666C10.46 16.6666 10.8333 16.2941 10.8333 15.8333V10.8333H15.8333C16.2933 10.8333 16.6666 10.4608 16.6666 9.99998C16.6666 9.53915 16.2933 9.16665 15.8333 9.16665Z" fill="white"/>
</mask>
<g mask="url(#mask0)">
<rect width="20" height="20" fill="white"/>
</g>
</svg>
