<svg width="32" height="32" viewBox="0 0 32 32" fill="none" xmlns="http://www.w3.org/2000/svg">
<rect width="32" height="32" rx="16" fill="#DBECF8"/>
<path d="M20.722 15.2773C20.8748 15.2773 21.0275 15.2145 21.137 15.0912C21.3409 14.8617 21.3203 14.5106 21.0909 14.3067L18.5909 12.0845C18.472 11.9784 18.3131 11.929 18.1553 11.9484L13.8314 12.4723L11.382 10.1517C11.1592 9.94174 10.807 9.95007 10.597 10.1734C10.3859 10.3962 10.3953 10.7479 10.6181 10.959L13.257 13.459C13.377 13.5728 13.5425 13.6267 13.7059 13.6073L18.0403 13.0812L20.3531 15.1373C20.4587 15.2312 20.5909 15.2773 20.722 15.2773Z" fill="#1553A0"/>
<path d="M18.7779 15.1994C18.7779 15.0911 18.8201 14.9844 18.9001 14.905L20.8446 12.9605C20.9635 12.8411 21.1429 12.8061 21.2985 12.87C21.454 12.9344 21.5557 13.0861 21.5557 13.255V15.1994C21.5557 15.4294 21.369 15.6161 21.139 15.6161H19.1946C19.0262 15.6161 18.874 15.5144 18.8096 15.3588C18.7885 15.3072 18.7779 15.2533 18.7779 15.1994Z" fill="#1553A0"/>
<path d="M22.1027 18.7585V20.2863H18.7693V18.7585C18.7693 18.3752 19.0805 18.0641 19.4638 18.0641H21.4082C21.7916 18.0641 22.1027 18.3752 22.1027 18.7585Z" fill="#1553A0"/>
<path d="M17.6667 15.4252V20.2863H14.3334V15.4252C14.3334 15.0418 14.6445 14.7307 15.0278 14.7307H16.9723C17.3556 14.7307 17.6667 15.0418 17.6667 15.4252Z" fill="#1553A0"/>
<path d="M13.2223 16.5364V20.2864H9.88895V16.5364C9.88895 16.153 10.2001 15.8419 10.5834 15.8419H12.5278C12.9112 15.8419 13.2223 16.153 13.2223 16.5364Z" fill="#1553A0"/>
<path d="M22.2501 21.953H9.75011C9.52011 21.953 9.33344 21.7663 9.33344 21.5363C9.33344 21.3063 9.52011 21.1196 9.75011 21.1196H22.2501C22.4801 21.1196 22.6668 21.3063 22.6668 21.5363C22.6668 21.7663 22.4801 21.953 22.2501 21.953Z" fill="#1553A0"/>
</svg>
