<svg width="32" height="32" viewBox="0 0 32 32" fill="none" xmlns="http://www.w3.org/2000/svg">
<rect width="32" height="32" rx="16" fill="#DBECF8"/>
<g clip-path="url(#clip0)">
<path d="M15.657 9.31116C15.657 9.11865 15.8138 8.96191 16.0063 8.96191C16.1989 8.96191 16.3556 9.11865 16.3556 9.31116V9.50012H17.3175V9.31116C17.3175 8.58826 16.7293 8 16.0063 8C15.2834 8 14.6951 8.58826 14.6951 9.31116V9.50012H15.657V9.31116Z" fill="#1553A0"/>
<path d="M14.7238 10.462H17.2887V11.5591H14.7238V10.462Z" fill="#1553A0"/>
<path fill-rule="evenodd" clip-rule="evenodd" d="M18.2506 10.5297H19.885C20.5928 10.5297 21.1686 11.1055 21.1686 11.8132V22.7164C21.1686 23.4242 20.5928 24 19.885 24H12.1273C11.4196 24 10.8438 23.4242 10.8438 22.7164V11.8132C10.8438 11.1055 11.4196 10.5297 12.1273 10.5297H13.762V12.04C13.762 12.3057 13.9773 12.521 14.2429 12.521H17.7697C18.0353 12.521 18.2506 12.3057 18.2506 12.04V10.5297ZM12.3141 14.182C12.1771 13.9423 12.2604 13.6368 12.5001 13.4998C12.7399 13.3628 13.0453 13.4461 13.1823 13.6859L14.6996 16.3411L16.2765 15.5526C16.5235 15.4291 16.8238 15.5292 16.9473 15.7762L18.1041 18.0898L18.7749 17.743C18.9245 17.6652 19.1061 17.6863 19.2349 17.7944C19.3636 17.903 19.4145 18.0783 19.3632 18.2393L18.7734 20.0921C18.7037 20.3112 18.4692 20.4325 18.25 20.3627L16.3972 19.7729C16.2368 19.7218 16.1225 19.5788 16.1083 19.411C16.1039 19.3554 16.1102 19.3008 16.1265 19.2495C16.1594 19.1463 16.232 19.0574 16.3323 19.006L17.2158 18.5492L16.2765 16.6706L14.7237 17.447C14.4864 17.5657 14.1977 17.4783 14.066 17.2479L12.3141 14.182Z" fill="#1553A0"/>
</g>
<defs>
<clipPath id="clip0">
<rect width="16" height="16" fill="white" transform="translate(8 8)"/>
</clipPath>
</defs>
</svg>
