<svg width="32" height="32" viewBox="0 0 32 32" fill="none" xmlns="http://www.w3.org/2000/svg">
<rect width="32" height="32" rx="16" fill="#DBECF8"/>
<path d="M22.6668 14.7334C22.7334 14.4 22.4668 14 22.1334 14L18.3334 13.4667L16.6001 10C16.5334 9.86671 16.4668 9.80004 16.3334 9.73337C16.0001 9.53337 15.6001 9.66671 15.4001 10L13.7334 13.4667L9.93344 14C9.73344 14 9.6001 14.0667 9.53344 14.2C9.26677 14.4667 9.26677 14.8667 9.53344 15.1334L12.2668 17.8L11.6001 21.6C11.6001 21.7334 11.6001 21.8667 11.6668 22C11.8668 22.3334 12.2668 22.4667 12.6001 22.2667L16.0001 20.4667L19.4001 22.2667C19.4668 22.3334 19.6001 22.3334 19.7334 22.3334C19.8001 22.3334 19.8001 22.3334 19.8668 22.3334C20.2001 22.2667 20.4668 21.9334 20.4001 21.5334L19.7334 17.7334L22.4668 15.0667C22.6001 15 22.6668 14.8667 22.6668 14.7334Z" fill="#1553A0"/>
</svg>
