<svg width="32" height="32" viewBox="0 0 32 32" fill="none" xmlns="http://www.w3.org/2000/svg">
<rect width="32" height="32" rx="16" fill="#DBECF8"/>
<path fill-rule="evenodd" clip-rule="evenodd" d="M21.9948 12.642C21.9935 12.594 21.9795 12.5487 21.9668 12.5027C21.9568 12.464 21.9521 12.4247 21.9355 12.3893C21.9201 12.3547 21.8941 12.3267 21.8715 12.2947C21.8435 12.254 21.8181 12.2133 21.7821 12.18C21.7761 12.174 21.7735 12.166 21.7668 12.1607C21.7428 12.14 21.7135 12.1327 21.6875 12.116C21.6475 12.09 21.6081 12.0633 21.5628 12.046C21.5181 12.03 21.4741 12.026 21.4281 12.0193C21.3961 12.0147 21.3675 12 21.3335 12H18.0001C17.6315 12 17.3335 12.2987 17.3335 12.6667C17.3335 13.0347 17.6315 13.3333 18.0001 13.3333H19.8841L17.1935 16.472L14.3428 14.762C14.0608 14.5913 13.6981 14.654 13.4875 14.9067L10.1541 18.9067C9.91881 19.1893 9.95681 19.61 10.2395 19.8453C10.3648 19.9493 10.5155 20 10.6661 20C10.8575 20 11.0468 19.9187 11.1788 19.76L14.1468 16.1987L16.9901 17.9053C17.2695 18.0727 17.6281 18.014 17.8395 17.7673L20.6668 14.4687V16C20.6668 16.368 20.9648 16.6667 21.3335 16.6667C21.7021 16.6667 22.0001 16.368 22.0001 16V12.6667C22.0001 12.658 21.9955 12.6507 21.9948 12.642Z" fill="#1553A0"/>
<mask id="mask0" style="mask-type:alpha" maskUnits="userSpaceOnUse" x="9" y="12" width="14" height="8">
<path fill-rule="evenodd" clip-rule="evenodd" d="M21.9948 12.642C21.9935 12.594 21.9795 12.5487 21.9668 12.5027C21.9568 12.464 21.9521 12.4247 21.9355 12.3893C21.9201 12.3547 21.8941 12.3267 21.8715 12.2947C21.8435 12.254 21.8181 12.2133 21.7821 12.18C21.7761 12.174 21.7735 12.166 21.7668 12.1607C21.7428 12.14 21.7135 12.1327 21.6875 12.116C21.6475 12.09 21.6081 12.0633 21.5628 12.046C21.5181 12.03 21.4741 12.026 21.4281 12.0193C21.3961 12.0147 21.3675 12 21.3335 12H18.0001C17.6315 12 17.3335 12.2987 17.3335 12.6667C17.3335 13.0347 17.6315 13.3333 18.0001 13.3333H19.8841L17.1935 16.472L14.3428 14.762C14.0608 14.5913 13.6981 14.654 13.4875 14.9067L10.1541 18.9067C9.91881 19.1893 9.95681 19.61 10.2395 19.8453C10.3648 19.9493 10.5155 20 10.6661 20C10.8575 20 11.0468 19.9187 11.1788 19.76L14.1468 16.1987L16.9901 17.9053C17.2695 18.0727 17.6281 18.014 17.8395 17.7673L20.6668 14.4687V16C20.6668 16.368 20.9648 16.6667 21.3335 16.6667C21.7021 16.6667 22.0001 16.368 22.0001 16V12.6667C22.0001 12.658 21.9955 12.6507 21.9948 12.642Z" fill="white"/>
</mask>
<g mask="url(#mask0)">
<rect x="8" y="8" width="16" height="16" fill="#1553A0"/>
</g>
</svg>
