<svg width="20" height="20" viewBox="0 0 20 20" fill="none" xmlns="http://www.w3.org/2000/svg">
<path fill-rule="evenodd" clip-rule="evenodd" d="M12.5006 15.8334C12.6889 15.8334 12.8781 15.7701 13.0339 15.6401C13.3872 15.3459 13.4347 14.8201 13.1406 14.4667L9.41058 9.99089L13.0064 5.52256C13.2947 5.16423 13.2381 4.63923 12.8797 4.35089C12.5206 4.06256 11.9964 4.11923 11.7072 4.47756L7.68392 9.47756C7.43558 9.78673 7.43892 10.2284 7.69308 10.5334L11.8597 15.5334C12.0247 15.7309 12.2614 15.8334 12.5006 15.8334Z" fill="#1553A0"/>
<mask id="mask0" style="mask-type:alpha" maskUnits="userSpaceOnUse" x="7" y="4" width="7" height="12">
<path fill-rule="evenodd" clip-rule="evenodd" d="M8.33291 15.8334C8.14458 15.8334 7.95541 15.7701 7.79958 15.6401C7.44625 15.3459 7.39875 14.8201 7.69291 14.4667L11.4229 9.99089L7.82708 5.52256C7.53875 5.16423 7.59541 4.63923 7.95375 4.35089C8.31291 4.06256 8.83708 4.11923 9.12625 4.47756L13.1496 9.47756C13.3979 9.78673 13.3946 10.2284 13.1404 10.5334L8.97375 15.5334C8.80875 15.7309 8.57208 15.8334 8.33291 15.8334Z" fill="white"/>
</mask>
<g mask="url(#mask0)">
</g>
</svg>
