<svg width="21" height="20" viewBox="0 0 21 20" fill="none" xmlns="http://www.w3.org/2000/svg">
<path fill-rule="evenodd" clip-rule="evenodd" d="M10.1059 3.24975C11.9242 1.42725 14.8584 1.09808 16.8851 2.68308C19.3126 4.58141 19.4717 8.11891 17.3626 10.2331L16.1767 11.4206C15.8492 11.7489 15.3192 11.7489 14.9917 11.4206C14.6642 11.0931 14.6642 10.5606 14.9917 10.2331L16.1767 9.04475C17.5559 7.66391 17.4809 5.36808 15.9501 4.08641C14.5942 2.95058 12.5592 3.16725 11.3101 4.41891L10.2492 5.48141C9.92255 5.80975 9.39089 5.80975 9.06422 5.48141C8.73672 5.15391 8.73339 4.62475 9.21172 4.14558L10.1059 3.24975ZM11.5775 7.74416L8.24422 11.0775C7.91838 11.4033 7.91838 11.93 8.24422 12.2558C8.40672 12.4183 8.62005 12.5 8.83338 12.5C9.04672 12.5 9.26005 12.4183 9.42255 12.2558L12.7559 8.9225C13.0817 8.59666 13.0817 8.07 12.7559 7.74416C12.4301 7.41833 11.9034 7.41833 11.5775 7.74416ZM10.7336 14.4971L9.67194 15.5562C8.42111 16.8037 6.38194 17.0187 5.02527 15.8879C3.49277 14.6112 3.41694 12.3229 4.79777 10.9454L5.98527 9.76208C6.31277 9.43542 6.31277 8.90542 5.98527 8.57792C5.65777 8.25208 5.12611 8.25208 4.79777 8.57792L3.73527 9.63875C1.92527 11.4437 1.60777 14.3471 3.17277 16.3671C5.06527 18.8112 8.61527 18.9762 10.7336 16.8646L11.9211 15.6812C12.2486 15.3537 12.2486 14.8246 11.9211 14.4971C11.5928 14.1696 11.0619 14.1696 10.7336 14.4971Z" fill="#888888"/>
<mask id="mask0" style="mask-type:alpha" maskUnits="userSpaceOnUse" x="2" y="1" width="17" height="18">
<path fill-rule="evenodd" clip-rule="evenodd" d="M10.1059 3.24975C11.9242 1.42725 14.8584 1.09808 16.8851 2.68308C19.3126 4.58141 19.4717 8.11891 17.3626 10.2331L16.1767 11.4206C15.8492 11.7489 15.3192 11.7489 14.9917 11.4206C14.6642 11.0931 14.6642 10.5606 14.9917 10.2331L16.1767 9.04475C17.5559 7.66391 17.4809 5.36808 15.9501 4.08641C14.5942 2.95058 12.5592 3.16725 11.3101 4.41891L10.2492 5.48141C9.92255 5.80975 9.39089 5.80975 9.06422 5.48141C8.73672 5.15391 8.73339 4.62475 9.21172 4.14558L10.1059 3.24975ZM11.5775 7.74416L8.24422 11.0775C7.91838 11.4033 7.91838 11.93 8.24422 12.2558C8.40672 12.4183 8.62005 12.5 8.83338 12.5C9.04672 12.5 9.26005 12.4183 9.42255 12.2558L12.7559 8.9225C13.0817 8.59666 13.0817 8.07 12.7559 7.74416C12.4301 7.41833 11.9034 7.41833 11.5775 7.74416ZM10.7336 14.4971L9.67194 15.5562C8.42111 16.8037 6.38194 17.0187 5.02527 15.8879C3.49277 14.6112 3.41694 12.3229 4.79777 10.9454L5.98527 9.76208C6.31277 9.43542 6.31277 8.90542 5.98527 8.57792C5.65777 8.25208 5.12611 8.25208 4.79777 8.57792L3.73527 9.63875C1.92527 11.4437 1.60777 14.3471 3.17277 16.3671C5.06527 18.8112 8.61527 18.9762 10.7336 16.8646L11.9211 15.6812C12.2486 15.3537 12.2486 14.8246 11.9211 14.4971C11.5928 14.1696 11.0619 14.1696 10.7336 14.4971Z" fill="white"/>
</mask>
<g mask="url(#mask0)">
<rect x="0.5" width="20" height="20" fill="#888888"/>
</g>
</svg>
