<svg width="20" height="20" viewBox="0 0 20 20" fill="none" xmlns="http://www.w3.org/2000/svg">
<path d="M16.4002 3.45455H15.6002V2.72727C15.6002 2.32727 15.2402 2 14.8002 2C14.3602 2 14.0002 2.32727 14.0002 2.72727V3.45455H6.00018V2.72727C6.00018 2.32727 5.64018 2 5.20018 2C4.76018 2 4.40018 2.32727 4.40018 2.72727V3.45455H3.60018C2.72018 3.45455 2.00018 4.10909 2.00018 4.90909V16.5455C2.00018 17.3455 2.72018 18 3.60018 18H16.4002C17.2802 18 18.0002 17.3455 18.0002 16.5455V4.90909C18.0002 4.10909 17.2802 3.45455 16.4002 3.45455ZM15.6002 16.5455H4.40018C3.96018 16.5455 3.60018 16.2182 3.60018 15.8182V7.09091H16.4002V15.8182C16.4002 16.2182 16.0402 16.5455 15.6002 16.5455Z" fill="#252525"/>
</svg>
