<svg width="25" height="24" viewBox="0 0 25 24" fill="none" xmlns="http://www.w3.org/2000/svg">
<g clip-path="url(#clip0)">
<path d="M13.53 1.86998L2.54 0.19998C2.03 0.11998 1.51 0.25998 1.12 0.58998C0.73 0.92998 0.5 1.41998 0.5 1.92998V23C0.5 23.55 0.95 24 1.5 24H4.75V18.75C4.75 17.78 5.53 17 6.5 17H9C9.97 17 10.75 17.78 10.75 18.75V24H15V3.59998C15 2.73998 14.38 2.00998 13.53 1.86998ZM6 14.75H4.5C4.086 14.75 3.75 14.414 3.75 14C3.75 13.586 4.086 13.25 4.5 13.25H6C6.414 13.25 6.75 13.586 6.75 14C6.75 14.414 6.414 14.75 6 14.75ZM6 11.75H4.5C4.086 11.75 3.75 11.414 3.75 11C3.75 10.586 4.086 10.25 4.5 10.25H6C6.414 10.25 6.75 10.586 6.75 11C6.75 11.414 6.414 11.75 6 11.75ZM6 8.74998H4.5C4.086 8.74998 3.75 8.41398 3.75 7.99998C3.75 7.58598 4.086 7.24998 4.5 7.24998H6C6.414 7.24998 6.75 7.58598 6.75 7.99998C6.75 8.41398 6.414 8.74998 6 8.74998ZM6 5.74998H4.5C4.086 5.74998 3.75 5.41398 3.75 4.99998C3.75 4.58598 4.086 4.24998 4.5 4.24998H6C6.414 4.24998 6.75 4.58598 6.75 4.99998C6.75 5.41398 6.414 5.74998 6 5.74998ZM11 14.75H9.5C9.086 14.75 8.75 14.414 8.75 14C8.75 13.586 9.086 13.25 9.5 13.25H11C11.414 13.25 11.75 13.586 11.75 14C11.75 14.414 11.414 14.75 11 14.75ZM11 11.75H9.5C9.086 11.75 8.75 11.414 8.75 11C8.75 10.586 9.086 10.25 9.5 10.25H11C11.414 10.25 11.75 10.586 11.75 11C11.75 11.414 11.414 11.75 11 11.75ZM11 8.74998H9.5C9.086 8.74998 8.75 8.41398 8.75 7.99998C8.75 7.58598 9.086 7.24998 9.5 7.24998H11C11.414 7.24998 11.75 7.58598 11.75 7.99998C11.75 8.41398 11.414 8.74998 11 8.74998ZM11 5.74998H9.5C9.086 5.74998 8.75 5.41398 8.75 4.99998C8.75 4.58598 9.086 4.24998 9.5 4.24998H11C11.414 4.24998 11.75 4.58598 11.75 4.99998C11.75 5.41398 11.414 5.74998 11 5.74998Z" fill="#CBDAF2"/>
<path d="M23.1201 10.8421L16.0001 9.35107V24.0001H22.7501C23.7151 24.0001 24.5001 23.2151 24.5001 22.2501V12.5521C24.5001 11.7261 23.9371 11.0231 23.1201 10.8421ZM20.7501 21.0001H19.2501C18.8361 21.0001 18.5001 20.6641 18.5001 20.2501C18.5001 19.8361 18.8361 19.5001 19.2501 19.5001H20.7501C21.1641 19.5001 21.5001 19.8361 21.5001 20.2501C21.5001 20.6641 21.1641 21.0001 20.7501 21.0001ZM20.7501 18.0001H19.2501C18.8361 18.0001 18.5001 17.6641 18.5001 17.2501C18.5001 16.8361 18.8361 16.5001 19.2501 16.5001H20.7501C21.1641 16.5001 21.5001 16.8361 21.5001 17.2501C21.5001 17.6641 21.1641 18.0001 20.7501 18.0001ZM20.7501 15.0001H19.2501C18.8361 15.0001 18.5001 14.6641 18.5001 14.2501C18.5001 13.8361 18.8361 13.5001 19.2501 13.5001H20.7501C21.1641 13.5001 21.5001 13.8361 21.5001 14.2501C21.5001 14.6641 21.1641 15.0001 20.7501 15.0001Z" fill="#CBDAF2"/>
</g>
<defs>
<clipPath id="clip0">
<rect width="24" height="24" fill="white" transform="translate(0.5)"/>
</clipPath>
</defs>
</svg>
