<svg width="24" height="24" viewBox="0 0 24 24" fill="none" xmlns="http://www.w3.org/2000/svg">
<path fill-rule="evenodd" clip-rule="evenodd" d="M12 10.4999C11.173 10.4999 10.5 11.1729 10.5 11.9999C10.5 12.8269 11.173 13.4999 12 13.4999C12.827 13.4999 13.5 12.8269 13.5 11.9999C13.5 11.1729 12.827 10.4999 12 10.4999ZM12.0001 15.4999C10.0701 15.4999 8.50009 13.9299 8.50009 11.9999C8.50009 10.0699 10.0701 8.49992 12.0001 8.49992C13.9301 8.49992 15.5001 10.0699 15.5001 11.9999C15.5001 13.9299 13.9301 15.4999 12.0001 15.4999ZM21.868 11.5019C21.229 10.3899 17.706 4.81589 11.729 5.00289C6.20205 5.14389 2.98605 10.0139 2.13205 11.5019C1.95605 11.8109 1.95605 12.1889 2.13205 12.4979C2.76205 13.5949 6.16205 18.9999 12.025 18.9999C12.106 18.9999 12.188 18.9989 12.271 18.9969C17.798 18.8559 21.014 13.9859 21.868 12.4979C22.044 12.1889 22.044 11.8109 21.868 11.5019Z" fill="#4A4A4A"/>
<mask id="mask0" style="mask-type:alpha" maskUnits="userSpaceOnUse" x="2" y="4" width="20" height="15">
<path fill-rule="evenodd" clip-rule="evenodd" d="M12 10.4999C11.173 10.4999 10.5 11.1729 10.5 11.9999C10.5 12.8269 11.173 13.4999 12 13.4999C12.827 13.4999 13.5 12.8269 13.5 11.9999C13.5 11.1729 12.827 10.4999 12 10.4999ZM12.0001 15.4999C10.0701 15.4999 8.50009 13.9299 8.50009 11.9999C8.50009 10.0699 10.0701 8.49992 12.0001 8.49992C13.9301 8.49992 15.5001 10.0699 15.5001 11.9999C15.5001 13.9299 13.9301 15.4999 12.0001 15.4999ZM21.868 11.5019C21.229 10.3899 17.706 4.81589 11.729 5.00289C6.20205 5.14389 2.98605 10.0139 2.13205 11.5019C1.95605 11.8109 1.95605 12.1889 2.13205 12.4979C2.76205 13.5949 6.16205 18.9999 12.025 18.9999C12.106 18.9999 12.188 18.9989 12.271 18.9969C17.798 18.8559 21.014 13.9859 21.868 12.4979C22.044 12.1889 22.044 11.8109 21.868 11.5019Z" fill="white"/>
</mask>
<g mask="url(#mask0)">
<rect width="24" height="24" fill="#A3B7D7"/>
</g>
</svg>
