<svg width="24" height="24" viewBox="0 0 24 24" fill="none" xmlns="http://www.w3.org/2000/svg">
<path fill-rule="evenodd" clip-rule="evenodd" d="M14.7138 8.00002C14.3198 8.00002 13.9998 7.61902 13.9998 7.15002V3.97802L17.7418 8.00002H14.7138ZM14.9998 18H8.99977C8.44777 18 7.99977 17.552 7.99977 17C7.99977 16.448 8.44777 16 8.99977 16H14.9998C15.5528 16 15.9998 16.448 15.9998 17C15.9998 17.552 15.5528 18 14.9998 18ZM8.99977 12H11.9998C12.5518 12 12.9998 12.448 12.9998 13C12.9998 13.552 12.5518 14 11.9998 14H8.99977C8.44777 14 7.99977 13.552 7.99977 13C7.99977 12.448 8.44777 12 8.99977 12ZM19.7398 7.328L15.2958 2.328C15.1068 2.119 14.8378 2 14.5558 2H6.55582C5.14682 2 3.99982 3.122 3.99982 4.5V19.5C3.99982 20.878 5.14682 22 6.55582 22H17.4438C18.8538 22 19.9998 20.878 19.9998 19.5V8C19.9998 7.751 19.9068 7.512 19.7398 7.328Z" fill="#4A4A4A"/>
<mask id="mask0" style="mask-type:alpha" maskUnits="userSpaceOnUse" x="3" y="2" width="17" height="20">
<path fill-rule="evenodd" clip-rule="evenodd" d="M14.7138 8.00002C14.3198 8.00002 13.9998 7.61902 13.9998 7.15002V3.97802L17.7418 8.00002H14.7138ZM14.9998 18H8.99977C8.44777 18 7.99977 17.552 7.99977 17C7.99977 16.448 8.44777 16 8.99977 16H14.9998C15.5528 16 15.9998 16.448 15.9998 17C15.9998 17.552 15.5528 18 14.9998 18ZM8.99977 12H11.9998C12.5518 12 12.9998 12.448 12.9998 13C12.9998 13.552 12.5518 14 11.9998 14H8.99977C8.44777 14 7.99977 13.552 7.99977 13C7.99977 12.448 8.44777 12 8.99977 12ZM19.7398 7.328L15.2958 2.328C15.1068 2.119 14.8378 2 14.5558 2H6.55582C5.14682 2 3.99982 3.122 3.99982 4.5V19.5C3.99982 20.878 5.14682 22 6.55582 22H17.4438C18.8538 22 19.9998 20.878 19.9998 19.5V8C19.9998 7.751 19.9068 7.512 19.7398 7.328Z" fill="white"/>
</mask>
<g mask="url(#mask0)">
<rect width="24" height="24" fill="#A3B7D7"/>
</g>
</svg>
