<svg width="23" height="22" viewBox="0 0 23 22" fill="none" xmlns="http://www.w3.org/2000/svg">
<g clip-path="url(#clip0)">
<path d="M11.5 0C5.43484 0 0.5 4.93484 0.5 11C0.5 17.0652 5.43484 22 11.5 22C17.5652 22 22.5 17.0652 22.5 11C22.5 4.93484 17.5652 0 11.5 0ZM17.6479 8.10526L10.6178 15.0802C10.2043 15.4937 9.54261 15.5213 9.1015 15.1078L5.3797 11.7168C4.9386 11.3033 4.91103 10.614 5.29699 10.1729C5.71053 9.73183 6.39975 9.70426 6.84085 10.1178L9.79073 12.8195L16.0764 6.53383C16.5175 6.09273 17.2068 6.09273 17.6479 6.53383C18.089 6.97494 18.089 7.66416 17.6479 8.10526Z" fill="#37B24D"/>
</g>
<defs>
<clipPath id="clip0">
<rect width="22" height="22" fill="white" transform="translate(0.5)"/>
</clipPath>
</defs>
</svg>
