<svg width="85" height="61" viewBox="0 0 85 61" fill="none" xmlns="http://www.w3.org/2000/svg">
<path d="M19.8302 58H22.2911V53.9084H26.338V51.9048H22.2911V49.8168H26.7805V47.8182H19.8302V58ZM33.5232 50.8707H35.8797C35.8598 48.9666 34.3435 47.679 31.977 47.679C29.6503 47.679 27.9749 48.9467 27.9898 50.8409C27.9848 52.3871 29.0686 53.2571 30.8286 53.6598L31.8925 53.9084C33.0111 54.1669 33.5132 54.4702 33.5232 55.0419C33.5132 55.6634 32.9316 56.0959 31.9422 56.0959C30.8534 56.0959 30.1375 55.5888 30.0828 54.6094H27.7263C27.7561 56.9908 29.4117 58.1293 31.972 58.1293C34.5075 58.1293 36.009 56.9808 36.0189 55.0469C36.009 53.4212 34.9102 52.4268 32.9017 51.9844L32.0267 51.7855C31.102 51.5866 30.5154 51.2784 30.5352 50.6719C30.5402 50.1151 31.0175 49.7124 31.972 49.7124C32.9316 49.7124 33.4585 50.1449 33.5232 50.8707ZM46.8719 52.9091C46.8719 49.5433 44.7441 47.679 42.0097 47.679C39.2654 47.679 37.1524 49.5433 37.1524 52.9091C37.1524 56.2599 39.2654 58.1392 42.0097 58.1392C44.7441 58.1392 46.8719 56.2749 46.8719 52.9091ZM44.3563 52.9091C44.3563 54.9027 43.4813 55.9815 42.0097 55.9815C40.5431 55.9815 39.6631 54.9027 39.6631 52.9091C39.6631 50.9155 40.5431 49.8366 42.0097 49.8366C43.4813 49.8366 44.3563 50.9155 44.3563 52.9091ZM48.3087 58H50.7696V54.8381H52.4401C54.7718 54.8381 56.2284 53.456 56.2284 51.343C56.2284 49.25 54.8016 47.8182 52.5146 47.8182H48.3087V58ZM50.7696 52.8991V49.8018H51.9827C53.0864 49.8018 53.678 50.3984 53.678 51.343C53.678 52.2827 53.0864 52.8991 51.9827 52.8991H50.7696ZM57.4415 58H59.9024V54.5149H61.1652L63.0246 58H65.7093L63.5963 54.1222C64.7149 53.6151 65.3612 52.6158 65.3612 51.2088C65.3612 49.1158 63.9344 47.8182 61.6475 47.8182H57.4415V58ZM59.9024 52.576V49.8018H61.1155C62.2192 49.8018 62.8108 50.2642 62.8108 51.2088C62.8108 52.1534 62.2192 52.576 61.1155 52.576H59.9024Z" fill="#1553A0"/>
<path d="M37.429 36.2723C37.429 36.8727 36.8363 37.3639 36.1119 37.3639H30.6679C29.9435 37.3639 29.3508 36.8727 29.3508 36.2723V31.3234C29.3508 30.7229 29.9435 30.2317 30.6679 30.2317H36.1119C36.8363 30.2317 37.429 30.7229 37.429 31.3234V36.2723Z" fill="#53A8E2"/>
<path d="M47.1095 36.2721C47.1095 36.8725 46.5168 37.3638 45.7924 37.3638H40.3484C39.624 37.3638 39.0313 36.8725 39.0313 36.2721V28.7032C39.0313 28.1028 39.624 27.6116 40.3484 27.6116H45.7924C46.5168 27.6116 47.1095 28.1028 47.1095 28.7032V36.2721Z" fill="#53A8E2"/>
<path d="M56.7903 36.2721C56.7903 36.8725 56.1976 37.3638 55.4732 37.3638H50.0292C49.3048 37.3638 48.7121 36.8725 48.7121 36.2721V25.7921C48.7121 25.1917 49.3048 24.7004 50.0292 24.7004H55.4732C56.1976 24.7004 56.7903 25.1917 56.7903 25.7921V36.2721Z" fill="#53A8E2"/>
<path d="M55.6512 14.1575L49.9817 15.6476C49.5319 15.7653 49.4316 16.1508 49.7589 16.5043L50.9687 17.7807C51.0703 17.9058 50.9498 18.0721 50.8542 18.1426C50.0924 18.7044 48.8834 19.5287 47.2123 20.4706C38.1145 25.5982 30.6149 25.2837 30.5022 25.2781C29.9002 25.2451 29.3855 25.7461 29.3543 26.3975C29.3233 27.0493 29.7871 27.605 30.3904 27.6386C30.4348 27.641 30.6151 27.6498 30.9183 27.6498C32.8627 27.6498 39.8474 27.2874 48.2243 22.5661C50.2065 21.449 51.5803 20.4855 52.3825 19.8755C52.4959 19.7892 52.6936 19.6405 52.876 19.8411L54.1992 21.2705C54.5265 21.624 54.8816 21.5152 54.9887 21.0288L56.2749 14.8281C56.3817 14.3416 56.101 14.0399 55.6512 14.1575Z" fill="#53A8E2"/>
<path d="M36.9509 21.7514C41.1397 21.7514 44.5477 18.2375 44.5477 13.9183C44.5477 8.38366 37.7408 1.96638 37.451 1.69587L36.9509 1.229L36.4508 1.69587C36.161 1.96633 29.3542 8.38361 29.3542 13.9183C29.3542 18.2374 32.7621 21.7514 36.9509 21.7514ZM36.5995 16.4539C38.055 16.4539 39.2391 15.2329 39.2391 13.7322H40.7296C40.7296 16.0803 38.8769 17.9907 36.5995 17.9907V16.4539Z" fill="#1553A0"/>
</svg>
