<svg width="21" height="20" viewBox="0 0 21 20" fill="none" xmlns="http://www.w3.org/2000/svg">
<path fill-rule="evenodd" clip-rule="evenodd" d="M17.9935 5.80243C17.9918 5.74243 17.9743 5.68576 17.9585 5.62826C17.946 5.57993 17.9402 5.53076 17.9193 5.4866C17.9002 5.44326 17.8677 5.40826 17.8393 5.36826C17.8043 5.31743 17.7727 5.2666 17.7277 5.22493C17.7202 5.21743 17.7168 5.20743 17.7085 5.20076C17.6785 5.17493 17.6418 5.16576 17.6093 5.14493C17.5593 5.11243 17.5102 5.0791 17.4535 5.05743C17.3977 5.03743 17.3427 5.03243 17.2852 5.0241C17.2452 5.01826 17.2093 4.99993 17.1668 4.99993H13.0002C12.5393 4.99993 12.1668 5.37326 12.1668 5.83326C12.1668 6.29326 12.5393 6.6666 13.0002 6.6666H15.3552L11.9918 10.5899L8.4285 8.45243C8.076 8.2391 7.62267 8.31743 7.35933 8.63327L3.19267 13.6333C2.8985 13.9866 2.946 14.5124 3.29934 14.8066C3.456 14.9366 3.64434 14.9999 3.83267 14.9999C4.07184 14.9999 4.3085 14.8983 4.4735 14.6999L8.1835 10.2483L11.7377 12.3816C12.0868 12.5908 12.5352 12.5174 12.7993 12.2091L16.3335 8.08577V9.99993C16.3335 10.4599 16.706 10.8333 17.1668 10.8333C17.6277 10.8333 18.0002 10.4599 18.0002 9.99993V5.83326C18.0002 5.82243 17.9943 5.81326 17.9935 5.80243Z" fill="#9B27E1"/>
<mask id="mask0" style="mask-type:alpha" maskUnits="userSpaceOnUse" x="2" y="5" width="17" height="10">
<path fill-rule="evenodd" clip-rule="evenodd" d="M17.9935 5.80243C17.9918 5.74243 17.9743 5.68576 17.9585 5.62826C17.946 5.57993 17.9402 5.53076 17.9193 5.4866C17.9002 5.44326 17.8677 5.40826 17.8393 5.36826C17.8043 5.31743 17.7727 5.2666 17.7277 5.22493C17.7202 5.21743 17.7168 5.20743 17.7085 5.20076C17.6785 5.17493 17.6418 5.16576 17.6093 5.14493C17.5593 5.11243 17.5102 5.0791 17.4535 5.05743C17.3977 5.03743 17.3427 5.03243 17.2852 5.0241C17.2452 5.01826 17.2093 4.99993 17.1668 4.99993H13.0002C12.5393 4.99993 12.1668 5.37326 12.1668 5.83326C12.1668 6.29326 12.5393 6.6666 13.0002 6.6666H15.3552L11.9918 10.5899L8.4285 8.45243C8.076 8.2391 7.62267 8.31743 7.35933 8.63327L3.19267 13.6333C2.8985 13.9866 2.946 14.5124 3.29934 14.8066C3.456 14.9366 3.64434 14.9999 3.83267 14.9999C4.07184 14.9999 4.3085 14.8983 4.4735 14.6999L8.1835 10.2483L11.7377 12.3816C12.0868 12.5908 12.5352 12.5174 12.7993 12.2091L16.3335 8.08577V9.99993C16.3335 10.4599 16.706 10.8333 17.1668 10.8333C17.6277 10.8333 18.0002 10.4599 18.0002 9.99993V5.83326C18.0002 5.82243 17.9943 5.81326 17.9935 5.80243Z" fill="white"/>
</mask>
<g mask="url(#mask0)">
<rect x="0.5" width="20" height="20" fill="#9B27E1"/>
</g>
</svg>
