<svg width="20" height="20" viewBox="0 0 20 20" fill="none" xmlns="http://www.w3.org/2000/svg">
<path fill-rule="evenodd" clip-rule="evenodd" d="M15 15.8333C14.54 15.8333 14.1666 15.46 14.1666 15C14.1666 14.54 14.54 14.1667 15 14.1667C15.46 14.1667 15.8333 14.54 15.8333 15C15.8333 15.46 15.46 15.8333 15 15.8333M4.16664 10.8333C3.70664 10.8333 3.33331 10.46 3.33331 10C3.33331 9.54001 3.70664 9.16667 4.16664 9.16667C4.62664 9.16667 4.99998 9.54001 4.99998 10C4.99998 10.46 4.62664 10.8333 4.16664 10.8333M15 4.16667C15.46 4.16667 15.8333 4.54 15.8333 5C15.8333 5.46 15.46 5.83334 15 5.83334C14.54 5.83334 14.1666 5.46 14.1666 5C14.1666 4.54 14.54 4.16667 15 4.16667M15 12.5C14.3191 12.5 13.7025 12.775 13.2508 13.2175L6.63829 10.2792C6.64913 10.1867 6.66663 10.095 6.66663 10C6.66663 9.905 6.64913 9.81333 6.63829 9.72083L13.2508 6.7825C13.7025 7.225 14.3191 7.5 15 7.5C16.3783 7.5 17.5 6.37833 17.5 5C17.5 3.62167 16.3783 2.5 15 2.5C13.6216 2.5 12.5 3.62167 12.5 5C12.5 5.095 12.5175 5.18667 12.5283 5.27917L5.91579 8.2175C5.46413 7.775 4.84746 7.5 4.16663 7.5C2.78829 7.5 1.66663 8.62167 1.66663 10C1.66663 11.3783 2.78829 12.5 4.16663 12.5C4.84746 12.5 5.46413 12.225 5.91579 11.7825L12.5283 14.7208C12.5175 14.8133 12.5 14.905 12.5 15C12.5 16.3783 13.6216 17.5 15 17.5C16.3783 17.5 17.5 16.3783 17.5 15C17.5 13.6217 16.3783 12.5 15 12.5" fill="#1553A0"/>
<mask id="mask0" style="mask-type:alpha" maskUnits="userSpaceOnUse" x="1" y="2" width="17" height="16">
<path fill-rule="evenodd" clip-rule="evenodd" d="M15 15.8333C14.54 15.8333 14.1666 15.46 14.1666 15C14.1666 14.54 14.54 14.1667 15 14.1667C15.46 14.1667 15.8333 14.54 15.8333 15C15.8333 15.46 15.46 15.8333 15 15.8333M4.16664 10.8333C3.70664 10.8333 3.33331 10.46 3.33331 10C3.33331 9.54001 3.70664 9.16667 4.16664 9.16667C4.62664 9.16667 4.99998 9.54001 4.99998 10C4.99998 10.46 4.62664 10.8333 4.16664 10.8333M15 4.16667C15.46 4.16667 15.8333 4.54 15.8333 5C15.8333 5.46 15.46 5.83334 15 5.83334C14.54 5.83334 14.1666 5.46 14.1666 5C14.1666 4.54 14.54 4.16667 15 4.16667M15 12.5C14.3191 12.5 13.7025 12.775 13.2508 13.2175L6.63829 10.2792C6.64913 10.1867 6.66663 10.095 6.66663 10C6.66663 9.905 6.64913 9.81333 6.63829 9.72083L13.2508 6.7825C13.7025 7.225 14.3191 7.5 15 7.5C16.3783 7.5 17.5 6.37833 17.5 5C17.5 3.62167 16.3783 2.5 15 2.5C13.6216 2.5 12.5 3.62167 12.5 5C12.5 5.095 12.5175 5.18667 12.5283 5.27917L5.91579 8.2175C5.46413 7.775 4.84746 7.5 4.16663 7.5C2.78829 7.5 1.66663 8.62167 1.66663 10C1.66663 11.3783 2.78829 12.5 4.16663 12.5C4.84746 12.5 5.46413 12.225 5.91579 11.7825L12.5283 14.7208C12.5175 14.8133 12.5 14.905 12.5 15C12.5 16.3783 13.6216 17.5 15 17.5C16.3783 17.5 17.5 16.3783 17.5 15C17.5 13.6217 16.3783 12.5 15 12.5" fill="white"/>
</mask>
<g mask="url(#mask0)">
<rect width="20" height="20" fill="#1553A0"/>
</g>
</svg>
