<svg width="32" height="32" viewBox="0 0 32 32" fill="none" xmlns="http://www.w3.org/2000/svg">
<path fill-rule="evenodd" clip-rule="evenodd" d="M23.2591 26.6667H8.74041C8.33241 26.6667 8.00041 26.3681 8.00041 26.0001V6.00008C8.00041 5.63208 8.33241 5.33341 8.74041 5.33341H14.6671V10.8667C14.6671 12.9627 16.2897 14.6667 18.2857 14.6667H24.0004V26.0001C24.0004 26.3681 23.6671 26.6667 23.2591 26.6667ZM23.5324 12.0001H18.2857C17.7604 12.0001 17.3337 11.4921 17.3337 10.8667V5.33341H17.4831L23.5324 12.0001ZM26.3204 11.1041L19.0617 3.10408C18.8097 2.82541 18.4511 2.66675 18.0737 2.66675H8.74041C6.86174 2.66675 5.33374 4.16275 5.33374 6.00008V26.0001C5.33374 27.8374 6.86174 29.3334 8.74041 29.3334H23.2591C25.1377 29.3334 26.6671 27.8374 26.6671 26.0001V12.0001C26.6671 11.6681 26.5431 11.3494 26.3204 11.1041Z" fill="#1F3456"/>
<mask id="mask0" style="mask-type:alpha" maskUnits="userSpaceOnUse" x="5" y="2" width="22" height="28">
<path fill-rule="evenodd" clip-rule="evenodd" d="M23.2591 26.6667H8.74041C8.33241 26.6667 8.00041 26.3681 8.00041 26.0001V6.00008C8.00041 5.63208 8.33241 5.33341 8.74041 5.33341H14.6671V10.8667C14.6671 12.9627 16.2897 14.6667 18.2857 14.6667H24.0004V26.0001C24.0004 26.3681 23.6671 26.6667 23.2591 26.6667ZM23.5324 12.0001H18.2857C17.7604 12.0001 17.3337 11.4921 17.3337 10.8667V5.33341H17.4831L23.5324 12.0001ZM26.3204 11.1041L19.0617 3.10408C18.8097 2.82541 18.4511 2.66675 18.0737 2.66675H8.74041C6.86174 2.66675 5.33374 4.16275 5.33374 6.00008V26.0001C5.33374 27.8374 6.86174 29.3334 8.74041 29.3334H23.2591C25.1377 29.3334 26.6671 27.8374 26.6671 26.0001V12.0001C26.6671 11.6681 26.5431 11.3494 26.3204 11.1041Z" fill="white"/>
</mask>
<g mask="url(#mask0)">
<rect width="32" height="32" fill="#A3B7D7"/>
</g>
<path d="M0 0V-1H-1V0H0ZM32 0H33V-1H32V0ZM32 32V33H33V32H32ZM0 32H-1V33H0V32ZM0 1H32V-1H0V1ZM31 0V32H33V0H31ZM32 31H0V33H32V31ZM1 32V0H-1V32H1Z" fill="white"/>
</svg>
