<svg width="16" height="17" viewBox="0 0 16 17" fill="none" xmlns="http://www.w3.org/2000/svg">
<path d="M5.33342 8.53483C6.66342 8.53483 7.66675 7.5315 7.66675 6.2015C7.66675 4.8715 6.66342 3.86816 5.33342 3.86816C4.00342 3.86816 3.00009 4.8715 3.00009 6.2015C3.00009 7.5315 4.00342 8.53483 5.33342 8.53483ZM6.00009 9.16683H4.66675C2.82875 9.16683 1.33342 10.6622 1.33342 12.5002V13.1668H2.00009H2.66675H8.00009H8.66675H9.33342V12.5002C9.33342 10.6622 7.83809 9.16683 6.00009 9.16683ZM13.5288 6.02883L12.0001 7.5575L10.4714 6.02883L9.52875 6.9715L11.0568 8.4995L9.52809 10.0282L10.4708 10.9708L11.9994 9.44216L13.5288 10.9715L14.4714 10.0288L12.9428 8.50016L14.4714 6.9715L13.5288 6.02883Z" fill="white"/>
</svg>
