<svg width="25" height="24" viewBox="0 0 25 24" fill="none" xmlns="http://www.w3.org/2000/svg">
<g clip-path="url(#clip0)">
<path d="M0.706106 23.7939C0.980934 24.0687 1.42568 24.0687 1.70047 23.7939L5.8512 19.6431C6.12603 19.918 6.57078 19.918 6.84556 19.6431L7.34276 19.1459L5.35404 17.1572L4.85684 17.6544C4.58201 17.9293 4.58201 18.374 4.85684 18.6488L0.706106 22.7995C0.431278 23.0743 0.431278 23.5191 0.706106 23.7939Z" fill="#CBDAF2"/>
<path d="M14.3033 2.24172L15.7949 3.73328L13.8062 5.722L18.778 10.6939L20.7667 8.70517L22.2582 10.1967C22.5331 10.4716 22.9778 10.4716 23.2526 10.1967C23.5274 9.9219 23.5274 9.47715 23.2526 9.20237L20.2695 6.21925L22.3051 4.18365L23.2994 5.18457C23.5743 5.4594 24.019 5.4594 24.2938 5.18457C24.5686 4.90975 24.5686 4.465 24.2938 4.19022C21.9266 1.81731 25.1402 5.02993 20.3164 0.206121C20.0416 -0.068707 19.5968 -0.068707 19.322 0.206121C19.0472 0.480949 19.0472 0.925699 19.322 1.20048L20.3164 2.19484L18.2808 4.23048L15.2977 1.24736C15.0229 0.972527 14.5781 0.972527 14.3033 1.24736C14.0285 1.52218 14.0285 1.96693 14.3033 2.24172Z" fill="#CBDAF2"/>
<path d="M14.8006 11.6884L16.2921 13.18L17.7837 11.6884L12.8118 6.71655L5.35403 14.1743C5.0792 14.4491 5.0792 14.8939 5.35403 15.1687L9.33152 19.1462C9.60635 19.421 10.0511 19.421 10.3259 19.1462L11.3202 18.1518L9.82867 16.6602C9.55385 16.3854 9.55385 15.9407 9.82867 15.6659C10.1035 15.3911 10.5483 15.3911 10.823 15.6659L12.3146 17.1574L13.309 16.1631L10.823 13.6772C10.5482 13.4023 10.5482 12.9576 10.823 12.6828C11.0979 12.408 11.5426 12.408 11.8174 12.6828L14.3033 15.1687L15.2977 14.1744L13.8061 12.6828C13.5313 12.408 13.5313 11.9632 13.8061 11.6884C14.081 11.4136 14.5257 11.4136 14.8006 11.6884Z" fill="#CBDAF2"/>
</g>
<defs>
<clipPath id="clip0">
<rect width="24" height="24" fill="white" transform="translate(0.5)"/>
</clipPath>
</defs>
</svg>
