<svg width="24" height="24" viewBox="0 0 24 24" fill="none" xmlns="http://www.w3.org/2000/svg">
<path d="M23.6488 8.49106C23.5946 8.33323 23.4024 8.21048 23.242 8.21048C22.5473 8.21048 21.8527 8.21048 21.158 8.21048C20.9976 8.21048 20.8054 8.33323 20.7511 8.49106C20.6981 8.64553 20.6584 8.78336 20.6321 8.91299L19.24 5.06174C19.0104 4.42667 18.4023 4 17.7271 4H7.08008C6.40479 4 5.79683 4.42667 5.56711 5.06185L4.17499 8.91345C4.14858 8.78371 4.10893 8.6457 4.05582 8.49106C4.00161 8.33323 3.8094 8.21048 3.64903 8.21048C2.95438 8.21048 2.25974 8.21048 1.56503 8.21048C1.40466 8.21048 1.21245 8.33323 1.15824 8.49106C0.947186 9.10555 0.947302 9.45732 1.1583 10.0719C1.2125 10.2297 1.40472 10.3524 1.56509 10.3524C2.25979 10.3524 2.95444 10.3524 3.64909 10.3524C3.65105 10.3524 3.65313 10.3519 3.65516 10.3519L3.62372 10.439C3.19878 10.5801 2.89197 10.9802 2.89197 11.4526V14.6776V14.9434V18.5121C2.89197 18.7958 3.12186 19.0257 3.40556 19.0257H5.99038C6.27401 19.0257 6.50396 18.7958 6.50396 18.5121V16.0119H18.3032V18.5121C18.3032 18.7958 18.5331 19.0257 18.8167 19.0257H21.4016C21.6853 19.0257 21.9151 18.7958 21.9151 18.5121V14.9434V14.6776V11.4526C21.9151 10.9803 21.6085 10.5803 21.1837 10.439L21.1522 10.3519C21.1541 10.3519 21.1561 10.3524 21.158 10.3524C21.8527 10.3524 22.5473 10.3524 23.242 10.3524C23.4025 10.3524 23.5946 10.2296 23.6488 10.0718C23.8598 9.45732 23.8597 9.10555 23.6488 8.49106ZM7.27675 5.89H17.529L19.1534 10.3839H5.65241L7.27675 5.89ZM7.5627 13.5498H5.40027C4.93633 13.5498 4.56028 13.1737 4.56028 12.7098C4.56028 12.2459 4.93627 11.8698 5.40027 11.8698H7.5627C8.02658 11.8698 8.40269 12.2459 8.40269 12.7098C8.40275 13.1737 8.02658 13.5498 7.5627 13.5498ZM19.4067 13.5498H17.2442C16.7804 13.5498 16.4043 13.1737 16.4043 12.7098C16.4043 12.2459 16.7804 11.8698 17.2442 11.8698H19.4067C19.8706 11.8698 20.2467 12.2459 20.2467 12.7098C20.2467 13.1737 19.8706 13.5498 19.4067 13.5498Z" fill="#A3B7D7"/>
</svg>
