<svg width="24" height="24" viewBox="0 0 24 24" fill="none" xmlns="http://www.w3.org/2000/svg">
<path d="M22.5 10.5C21.9459 10.5 21.4613 10.8019 21.2016 11.25H19.8394C19.6866 9.64041 19.0477 8.17045 18.0709 6.98972L19.0371 6.02353C19.5341 6.15731 20.0925 6.02841 20.4853 5.6363C21.0703 5.0513 21.0703 4.09973 20.4853 3.51473C19.9003 2.92973 18.9487 2.92973 18.3637 3.51473C17.9723 3.90656 17.843 4.46283 17.9765 4.96289L17.0103 5.92908C15.8295 4.9523 14.3596 4.31344 12.75 4.16062V2.79844C13.1981 2.53875 13.5 2.05406 13.5 1.5C13.5 0.672656 12.8273 0 12 0C11.1727 0 10.5 0.672656 10.5 1.5C10.5 2.05406 10.8019 2.53875 11.25 2.79844V4.16062C9.64041 4.31344 8.17045 4.9523 6.98972 5.92908L6.02353 4.96289C6.15703 4.46278 6.02761 3.90652 5.6363 3.51473C5.0513 2.92973 4.09973 2.92973 3.51473 3.51473C2.92973 4.09973 2.92973 5.0513 3.51473 5.6363C3.90727 6.02817 4.46564 6.15741 4.96289 6.02353L5.92908 6.98972C4.9523 8.17045 4.31344 9.64041 4.16062 11.25H2.79844C2.53875 10.8019 2.05406 10.5 1.5 10.5C0.672656 10.5 0 11.1727 0 12C0 12.8273 0.672656 13.5 1.5 13.5C2.05406 13.5 2.53875 13.1981 2.79844 12.75H4.16062C4.31344 14.3596 4.9523 15.8295 5.92908 17.0103L4.96289 17.9765C4.46283 17.843 3.90652 17.9724 3.51473 18.3637C2.92973 18.9487 2.92973 19.9003 3.51473 20.4853C4.10081 21.0713 5.05237 21.0692 5.6363 20.4853C6.02766 20.0934 6.15703 19.5372 6.02353 19.0371L6.98972 18.0709C8.17045 19.0477 9.64041 19.6866 11.25 19.8394V21.2016C10.8019 21.4613 10.5 21.9459 10.5 22.5C10.5 23.3273 11.1727 24 12 24C12.8273 24 13.5 23.3273 13.5 22.5C13.5 21.9459 13.1981 21.4613 12.75 21.2016V19.8394C14.3596 19.6866 15.8295 19.0477 17.0103 18.0709L17.9765 19.0371C17.843 19.5372 17.9724 20.0935 18.3637 20.4853C18.9476 21.0692 19.8992 21.0713 20.4853 20.4853C21.0703 19.9003 21.0703 18.9487 20.4853 18.3637C20.0934 17.9723 19.5372 17.843 19.0371 17.9765L18.0709 17.0103C19.0477 15.8295 19.6866 14.3596 19.8394 12.75H21.2016C21.4613 13.1981 21.9459 13.5 22.5 13.5C23.3273 13.5 24 12.8273 24 12C24 11.1727 23.3273 10.5 22.5 10.5ZM9.51562 11.625C8.79187 11.625 8.20312 11.0363 8.20312 10.3125C8.20312 9.58875 8.79187 9 9.51562 9C10.2394 9 10.8281 9.58875 10.8281 10.3125C10.8281 11.0363 10.2394 11.625 9.51562 11.625ZM12.75 16.125C11.9227 16.125 11.25 15.4523 11.25 14.625C11.25 13.7977 11.9227 13.125 12.75 13.125C13.5773 13.125 14.25 13.7977 14.25 14.625C14.25 15.4523 13.5773 16.125 12.75 16.125ZM15.375 10.875C14.7548 10.875 14.25 10.3702 14.25 9.75C14.25 9.12984 14.7548 8.625 15.375 8.625C15.9952 8.625 16.5 9.12984 16.5 9.75C16.5 10.3702 15.9952 10.875 15.375 10.875Z" fill="#A3B7D7"/>
</svg>
