<svg width="25" height="24" viewBox="0 0 25 24" fill="none" xmlns="http://www.w3.org/2000/svg">
<g clip-path="url(#clip0)">
<path d="M2.40092 22.8487H22.608C24.021 22.8487 24.9307 21.3583 24.2919 20.1002L14.1884 2.19642C13.4914 0.803017 11.498 0.803017 10.8012 2.19642L0.697635 20.1002C0.0782602 21.3583 0.987967 22.8487 2.40092 22.8487ZM14.0918 18.6873C14.0918 19.6163 13.4144 20.3325 12.4466 20.3325C11.4788 20.3325 10.8014 19.6163 10.8014 18.6873V18.6486C10.8014 17.7195 11.4788 17.0033 12.4466 17.0033C13.4144 17.0033 14.0918 17.7195 14.0918 18.6486V18.6873ZM11.5561 6.59011H13.4531C13.9755 6.59011 14.2854 7.03528 14.2273 7.59659L13.3948 14.8742C13.3368 15.3968 12.9884 15.7259 12.5045 15.7259C12.0206 15.7259 11.6722 15.3968 11.6141 14.8742L10.7816 7.59659C10.7238 7.03528 11.0336 6.59011 11.5561 6.59011Z" fill="#D94C4B"/>
</g>
<defs>
<clipPath id="clip0">
<rect width="24" height="24" fill="white" transform="translate(0.5)"/>
</clipPath>
</defs>
</svg>
